<svg xmlns="http://www.w3.org/2000/svg" version="1.1" width="512" height="512">
<path d="M0 0 C0.90795822 -0.00073013 1.81591644 -0.00146027 2.75138855 -0.00221252 C5.73868514 0.00125809 8.72440316 0.04009446 11.71142578 0.0793457 C13.78792469 0.0886757 15.86443463 0.09579093 17.94094849 0.1007843 C23.39594111 0.1198393 28.85026396 0.16892776 34.30499268 0.2243042 C39.87527405 0.27552868 45.44566406 0.29830521 51.01611328 0.32348633 C61.93828192 0.37704748 72.85995432 0.46234259 83.78173828 0.56762695 C83.00161377 1.34702637 82.22148926 2.12642578 81.41772461 2.92944336 C79.80823541 4.54027417 78.20316166 6.1555522 76.60595703 7.77856445 C72.55677116 11.87956806 68.44256948 15.81026988 64.07080078 19.5637207 C61.13211134 22.13632768 58.27040386 24.78708502 55.40673828 27.44262695 C49.91026716 32.53560766 44.36471269 37.56944855 38.78173828 42.56762695 C32.90370889 47.83791178 27.05673443 53.1399488 21.24316406 58.48120117 C17.30110627 62.09991171 13.32674331 65.68108398 9.34423828 69.25512695 C6.47573419 71.84377699 3.62697178 74.45347841 0.78173828 77.06762695 C-3.67161659 81.15928802 -8.15486026 85.21585641 -12.65576172 89.25512695 C-15.52426581 91.84377699 -18.37302822 94.45347841 -21.21826172 97.06762695 C-25.67161659 101.15928802 -30.15486026 105.21585641 -34.65576172 109.25512695 C-37.52426581 111.84377699 -40.37302822 114.45347841 -43.21826172 117.06762695 C-47.67161659 121.15928802 -52.15486026 125.21585641 -56.65576172 129.25512695 C-59.52426581 131.84377699 -62.37302822 134.45347841 -65.21826172 137.06762695 C-69.67161659 141.15928802 -74.15486026 145.21585641 -78.65576172 149.25512695 C-81.52426617 151.84377731 -84.37299153 154.45351804 -87.21826172 157.06762695 C-93.31813315 162.67065872 -99.47387335 168.20975609 -105.64013672 173.73950195 C-106.44966797 174.4665332 -107.25919922 175.19356445 -108.09326172 175.94262695 C-108.88375916 176.63317673 -109.67425659 177.3237265 -110.4887085 178.03520203 C-113.26765853 180.52320155 -113.26765853 180.52320155 -115.67193604 183.38777161 C-120.54933895 188.68400867 -124.38284383 192.08308219 -131.7349205 192.73508739 C-135.94199453 192.87925762 -140.12183479 192.78255706 -144.32763672 192.6418457 C-146.14889795 192.6212871 -147.97022071 192.60564899 -149.79156494 192.59468079 C-154.54757546 192.55300687 -159.29979295 192.44526157 -164.05432129 192.32293701 C-168.92094623 192.2096862 -173.78819427 192.16001871 -178.65576172 192.10473633 C-188.17824679 191.98734485 -197.69793691 191.80002513 -207.21826172 191.56762695 C-204.06331184 184.88845663 -198.0915024 180.11216114 -192.53076172 175.38012695 C-188.55266732 171.97602613 -184.89826832 168.28635009 -181.21826172 164.56762695 C-173.93751469 157.2107613 -173.93751469 157.2107613 -170.28076172 154.13012695 C-166.19204999 150.67724081 -162.48091696 146.86685277 -158.71826172 143.06762695 C-154.4163853 138.72397967 -150.11518269 134.50713935 -145.43701172 130.56762695 C-141.36338092 126.89562173 -137.56696183 122.93429523 -133.70874023 119.03857422 C-130.049792 115.35769697 -126.34086081 111.84596536 -122.37060547 108.5012207 C-119.19473492 105.64812466 -116.2206662 102.60139633 -113.21826172 99.56762695 C-105.93715969 92.21046223 -105.93715969 92.21046223 -102.28076172 89.13012695 C-98.19205021 85.67724099 -94.48091474 81.86685498 -90.71826172 78.06762695 C-86.39497517 73.70231575 -82.07149341 69.46148735 -77.37060547 65.5012207 C-74.19473492 62.64812466 -71.2206662 59.60139633 -68.21826172 56.56762695 C-60.93715969 49.21046223 -60.93715969 49.21046223 -57.28076172 46.13012695 C-53.19204999 42.67724081 -49.48091696 38.86685277 -45.71826172 35.06762695 C-37.86770716 27.14084417 -37.86770716 27.14084417 -34.21826172 24.06762695 C-31.5800787 21.80096129 -29.06398785 19.4684726 -26.61669922 16.99731445 C-25.62669922 16.00248047 -25.62669922 16.00248047 -24.61669922 14.98754883 C-23.29880843 13.65566499 -21.98356356 12.32115617 -20.67138672 10.98364258 C-20.05521484 10.3590918 -19.43904297 9.73454102 -18.80419922 9.09106445 C-18.25812012 8.53338379 -17.71204102 7.97570312 -17.14941406 7.40112305 C-16.51213379 6.79606934 -15.87485352 6.19101562 -15.21826172 5.56762695 C-14.37855835 4.7165184 -13.53885498 3.86540985 -12.67370605 2.98851013 C-8.6968428 -0.2843913 -4.97761399 -0.1055124 0 0 Z " fill="#00AAE7" transform="translate(207.21826171875,251.432373046875)"/>
<path d="M0 0 C11.85693763 -0.16241155 23.71360931 -0.28668178 35.57143402 -0.3626852 C41.07797115 -0.39916921 46.58374556 -0.4486318 52.08984375 -0.52807617 C57.40671754 -0.60430754 62.72285919 -0.64602663 68.04023743 -0.6641407 C70.06565371 -0.67704404 72.09103129 -0.70224227 74.11613464 -0.7401104 C91.99115795 -1.06097443 91.99115795 -1.06097443 97.05834961 3.31201172 C98.7059021 5.23542786 98.7059021 5.23542786 100 7 C100.73613525 7.67361572 101.47227051 8.34723145 102.23071289 9.04125977 C103.09297485 9.85808228 103.09297485 9.85808228 103.97265625 10.69140625 C104.6368457 11.31885742 105.30103516 11.94630859 105.98535156 12.59277344 C107.01354004 13.56778809 107.01354004 13.56778809 108.0625 14.5625 C109.55835778 15.97551027 111.05445617 17.38826585 112.55078125 18.80078125 C113.66767334 19.85579834 113.66767334 19.85579834 114.80712891 20.93212891 C118.11179118 24.04841587 121.42893599 27.15120851 124.75 30.25 C125.36633301 30.82508301 125.98266602 31.40016602 126.61767578 31.99267578 C131.06924678 36.1417243 135.54011721 40.26947095 140.01660156 44.39160156 C145.05936582 49.04150287 150.05863484 53.73725884 155.05834961 58.43334961 C159.18744779 62.30886757 163.33287724 66.16541571 167.5 70 C173.0526248 75.10952257 178.55857515 80.26754212 184.05859375 85.43359375 C188.18762316 89.30901675 192.33296191 93.16549363 196.5 97 C202.0526248 102.10952257 207.55857515 107.26754212 213.05859375 112.43359375 C217.18762316 116.30901675 221.33296191 120.16549363 225.5 124 C231.04496668 129.10247557 236.5459188 134.25068493 242.03442383 139.41381836 C245.24786349 142.4334945 248.47085058 145.44032048 251.73046875 148.41015625 C252.31505859 148.94382813 252.89964844 149.4775 253.50195312 150.02734375 C254.58220246 151.01120931 255.66528942 151.99197363 256.75195312 152.96875 C260.18578509 156.09866289 263.06006897 159.42155704 266 163 C253.96904383 163.27907469 241.93886773 163.49177483 229.90532398 163.62174606 C224.31632811 163.68415502 218.72955966 163.76867507 213.1418457 163.90527344 C207.74051522 164.03647633 202.34131476 164.10757552 196.9385128 164.13852692 C194.88630344 164.16055739 192.83419982 164.20358102 190.78290749 164.26876068 C173.05237797 164.8093056 173.05237797 164.8093056 166.05852032 158.81084061 C163.52229123 156.33323147 161.26293473 153.73204379 159 151 C157.74317375 149.7153123 156.4765361 148.43986603 155.1875 147.1875 C154.66285156 146.65253906 154.13820312 146.11757812 153.59765625 145.56640625 C151.83533729 143.83855808 149.99696908 142.23320827 148.125 140.625 C145.1153247 138.03365795 142.28911384 135.32745217 139.5 132.5 C136.11758601 129.0711721 132.61929558 125.87951482 128.96484375 122.74609375 C126.18300852 120.27396582 123.60624049 117.61569453 120.99609375 114.96484375 C119.07892823 113.07769256 117.10424678 111.31314625 115.0625 109.5625 C111.25175937 106.28869347 107.74921835 102.76636029 104.22265625 99.19140625 C101.5729856 96.57898932 98.78827197 94.16697379 95.96484375 91.74609375 C93.18300852 89.27396582 90.60624049 86.61569453 87.99609375 83.96484375 C86.07892823 82.07769256 84.10424678 80.31314625 82.0625 78.5625 C78.25175937 75.28869347 74.74921835 71.76636029 71.22265625 68.19140625 C68.5729856 65.57898932 65.78827197 63.16697379 62.96484375 60.74609375 C60.18300852 58.27396582 57.60624049 55.61569453 54.99609375 52.96484375 C53.07892823 51.07769256 51.10424678 49.31314625 49.0625 47.5625 C45.25175937 44.28869347 41.74921835 40.76636029 38.22265625 37.19140625 C35.5729856 34.57898932 32.78827197 32.16697379 29.96484375 29.74609375 C27.18300852 27.27396582 24.60624049 24.61569453 21.99609375 21.96484375 C20.07892823 20.07769256 18.10424678 18.31314625 16.0625 16.5625 C12.15753522 13.21318239 8.56577727 9.60480813 4.98046875 5.91796875 C2.95064723 3.83682933 2.95064723 3.83682933 0 2 C0 1.34 0 0.68 0 0 Z " fill="#00AAE7" transform="translate(26,69)"/>
<path d="M0 0 C4.83751885 4.10043211 9.55681462 8.29287116 14.1875 12.625 C15.15925171 13.53197632 15.15925171 13.53197632 16.15063477 14.45727539 C21.26091253 19.25156984 26.22399681 24.17244506 31.12109375 29.18359375 C33.27794352 31.34660815 35.53364741 33.3539879 37.84765625 35.34765625 C42.82584231 39.65777151 47.39196735 44.34102921 52 49.0390625 C55.23997537 52.31700634 58.50697069 55.49135561 62 58.5 C66.93462131 62.75032812 71.44253389 67.39258338 76 72.0390625 C79.23997537 75.31700634 82.50697069 78.49135561 86 81.5 C90.93462131 85.75032812 95.44253389 90.39258338 100 95.0390625 C103.87539047 98.95986771 107.85496085 102.65675095 112.03125 106.25390625 C115.99672457 109.77090453 119.64859394 113.60961697 123.35546875 117.39453125 C126.46624598 120.54443775 129.61359379 123.5788596 132.96875 126.46875 C137.91227222 130.73139913 142.4321549 135.38200168 147 140.0390625 C150.23997537 143.31700634 153.50697069 146.49135561 157 149.5 C161.93462131 153.75032812 166.44253389 158.39258338 171 163.0390625 C174.94261033 167.02787529 178.97994013 170.82433254 183.23828125 174.4753418 C185.63436454 176.54900312 187.86080459 178.66025502 190 181 C190 181.66 190 182.32 190 183 C179.44699756 183.18570185 168.89438637 183.32767896 158.34008026 183.41449738 C153.43869649 183.45617566 148.53843386 183.51266648 143.63769531 183.60351562 C138.90433306 183.69070865 134.17204611 183.73832947 129.4379425 183.75901794 C127.63575823 183.77375256 125.83363011 183.80252786 124.03190613 183.84584045 C109.91216332 184.1716434 109.91216332 184.1716434 105.1965332 181.28222656 C103.19974697 179.29298573 101.63159548 177.28942419 100 175 C98.77959376 173.8632095 97.53235389 172.75392042 96.25 171.6875 C92.81491188 168.73063003 89.45934611 165.69447307 86.125 162.625 C82.43463245 159.22946951 78.732945 155.84884776 75 152.5 C71.26705169 149.15114927 67.56554155 145.77034435 63.875 142.375 C60.63786909 139.3977736 57.38862144 136.44047034 54.0625 133.5625 C49.930891 129.98062691 45.93070073 126.26162042 41.92041016 122.54541016 C37.82575629 118.7536258 33.69166993 115.00912216 29.53515625 111.28515625 C26.63086734 108.66726871 23.75229225 106.02246797 20.875 103.375 C17.63788971 100.39775181 14.3886208 97.44046979 11.0625 94.5625 C6.930891 90.98062691 2.93070073 87.26162042 -1.07958984 83.54541016 C-5.17424371 79.7536258 -9.30833007 76.00912216 -13.46484375 72.28515625 C-16.36913352 69.66726794 -19.24765363 67.02241016 -22.125 64.375 C-26.0295168 60.78525451 -29.96923803 57.24423664 -33.9765625 53.76953125 C-38.02684072 50.22749258 -42.00805038 46.60747906 -46 43 C-40.63896398 36.29870497 -34.37228044 30.70522118 -28 25 C-27.14921875 24.23429687 -26.2984375 23.46859375 -25.421875 22.6796875 C-23.80858591 21.22772732 -22.19400337 19.77720302 -20.578125 18.328125 C-18.6841966 16.61785026 -16.7991359 14.90025771 -14.921875 13.171875 C-14.13103516 12.44387695 -14.13103516 12.44387695 -13.32421875 11.70117188 C-11.8347422 10.32811843 -10.34700563 8.95317818 -8.859375 7.578125 C-5.96497954 4.96842418 -3.00936908 2.47516155 0 0 Z " fill="#4C4C4E" transform="translate(322,260)"/>
<path d="M0 0 C0.8979126 -0.00043808 1.7958252 -0.00087616 2.72094727 -0.00132751 C5.68625701 0.00076104 8.65100006 0.02409543 11.61621094 0.04760742 C13.6731536 0.05320313 15.73010025 0.05747335 17.78704834 0.06047058 C23.19912772 0.07192128 28.61096532 0.10139056 34.02294922 0.13458252 C39.54619069 0.16527845 45.06947125 0.17897491 50.59277344 0.1940918 C61.42881713 0.22625991 72.26468142 0.27745912 83.10058594 0.34057617 C81.9910019 3.66932828 81.1751409 4.35547316 78.53808594 6.52807617 C75.59045952 9.02383829 72.80484528 11.58276714 70.10058594 14.34057617 C66.87900044 17.61259745 63.51466448 20.63373672 60.03417969 23.62573242 C58.14563997 25.30061916 56.36902946 27.04005204 54.60058594 28.84057617 C52.21005427 31.27447349 49.75012331 33.55413176 47.16308594 35.77807617 C44.35482247 38.19675396 41.70088001 40.699573 39.10058594 43.34057617 C35.90029072 46.590876 32.55834018 49.58781862 29.10058594 52.55932617 C26.31173061 55.04315045 23.7237161 57.70769054 21.10449219 60.36791992 C18.51812442 62.91395447 15.78523314 65.26079174 13.03417969 67.62573242 C11.14563997 69.30061916 9.36902946 71.04005204 7.60058594 72.84057617 C5.21005427 75.27447349 2.75012331 77.55413176 0.16308594 79.77807617 C-2.64517753 82.19675396 -5.29911999 84.699573 -7.89941406 87.34057617 C-11.12099956 90.61259745 -14.48533552 93.63373672 -17.96582031 96.62573242 C-19.85436003 98.30061916 -21.63097054 100.04005204 -23.39941406 101.84057617 C-25.78994573 104.27447349 -28.24987669 106.55413176 -30.83691406 108.77807617 C-33.64517753 111.19675396 -36.29911999 113.699573 -38.89941406 116.34057617 C-42.09970928 119.590876 -45.44165982 122.58781862 -48.89941406 125.55932617 C-51.68826939 128.04315045 -54.2762839 130.70769054 -56.89550781 133.36791992 C-59.47798813 135.91012764 -62.20605691 138.25392827 -64.95410156 140.61401367 C-67.51535951 142.88725868 -69.89161836 145.32002275 -72.29003906 147.76245117 C-74.36351107 149.79566159 -76.58624263 151.58817357 -78.89941406 153.34057617 C-81.95883238 151.96706303 -84.13574989 150.3836658 -86.55175781 148.06713867 C-87.23906982 147.41334229 -87.92638184 146.7595459 -88.63452148 146.0859375 C-89.36131104 145.38621826 -90.08810059 144.68649902 -90.83691406 143.96557617 C-92.37288885 142.50282866 -93.90935143 141.04059321 -95.44628906 139.57885742 C-96.58227539 138.49531982 -96.58227539 138.49531982 -97.74121094 137.38989258 C-100.66332806 134.61520353 -103.61935492 131.87899254 -106.58691406 129.15307617 C-107.61565064 128.20656021 -108.64429607 127.25994517 -109.67285156 126.31323242 C-110.1881543 125.83901855 -110.70345703 125.36480469 -111.234375 124.8762207 C-114.40098862 121.95569289 -117.55604786 119.02270708 -120.71191406 116.09057617 C-121.3296167 115.51670166 -121.94731934 114.94282715 -122.58374023 114.3515625 C-124.02244621 113.01472635 -125.46095328 111.67767615 -126.89941406 110.34057617 C-123.1348067 105.78174785 -119.23080483 101.60553419 -114.83691406 97.65307617 C-113.68709142 96.60499021 -112.5373542 95.55681051 -111.38769531 94.50854492 C-110.80713379 93.98180176 -110.22657227 93.45505859 -109.62841797 92.91235352 C-106.91374018 90.44453431 -104.21902088 87.95526677 -101.52441406 85.46557617 C-100.99460937 84.97686035 -100.46480469 84.48814453 -99.91894531 83.98461914 C-95.70960627 80.09878492 -91.5215544 76.19047561 -87.33691406 72.27807617 C-81.91924752 67.21286773 -76.46775996 62.18798909 -70.99316406 57.18432617 C-67.43963903 53.92692823 -63.91998872 50.63350063 -60.39941406 47.34057617 C-54.91134639 42.20810083 -49.39346182 37.11083347 -43.84863281 32.03979492 C-40.75551566 29.20887578 -37.66894526 26.37105269 -34.58691406 23.52807617 C-33.79401978 22.79705688 -33.79401978 22.79705688 -32.98510742 22.05126953 C-29.93922225 19.23859704 -26.90631499 16.41271907 -23.88378906 13.57495117 C-23.21001221 12.94306885 -22.53623535 12.31118652 -21.84204102 11.66015625 C-20.53422551 10.43259632 -19.22799535 9.20334455 -17.92358398 7.97216797 C-17.02796753 7.13165894 -17.02796753 7.13165894 -16.11425781 6.27416992 C-15.58952881 5.77973389 -15.0647998 5.28529785 -14.52416992 4.77587891 C-13.98800049 4.302229 -13.45183105 3.8285791 -12.89941406 3.34057617 C-12.38945389 2.82299744 -11.87949371 2.3054187 -11.3540802 1.77215576 C-7.70675928 -0.35498899 -4.10385359 -0.05232787 0 0 Z " fill="#8A8C8E" transform="translate(402.8994140625,68.659423828125)"/>
</svg>