<svg xmlns="http://www.w3.org/2000/svg" width="60" height="80" data-name="Layer 1" viewBox="0 0 128 160" x="0px" y="0px"><title>miscellaneous 298 final</title><path d="M48,30H80a2,2,0,0,0,0-4H48a2,2,0,0,0,0,4Z"/><path d="M48,38H70a2,2,0,0,0,0-4H48a2,2,0,0,0,0,4Z"/><path d="M48,50H80a2,2,0,0,0,0-4H48a2,2,0,0,0,0,4Z"/><path d="M45.70789,86.9906a5.22361,5.22361,0,0,0,1.01984-5.9314,18.70833,18.70833,0,0,0,.80011-1.92993A5.22356,5.22356,0,0,0,51,74.21429V71.78571a5.2235,5.2235,0,0,0-3.47217-4.915,18.70934,18.70934,0,0,0-.80011-1.93,5.22326,5.22326,0,0,0-1.01984-5.93134L43.9906,57.29211a5.2243,5.2243,0,0,0-5.93414-1.02124,18.73173,18.73173,0,0,0-1.92712-.79877A5.22358,5.22358,0,0,0,31.21429,52H28.78571a5.22364,5.22364,0,0,0-4.915,3.47217,18.7167,18.7167,0,0,0-1.92706.79871,5.2244,5.2244,0,0,0-5.93427,1.0213L14.29211,59.0094a5.22358,5.22358,0,0,0-1.0199,5.9314,18.71583,18.71583,0,0,0-.8,1.92993A5.2235,5.2235,0,0,0,9,71.78571v2.42859a5.22356,5.22356,0,0,0,3.47217,4.915,18.70272,18.70272,0,0,0,.80011,1.92993,5.22327,5.22327,0,0,0,1.01978,5.93127l1.71735,1.71741a5.2241,5.2241,0,0,0,5.93414,1.02118,18.72376,18.72376,0,0,0,1.92712.79877A5.22364,5.22364,0,0,0,28.78571,94h2.42859a5.22364,5.22364,0,0,0,4.915-3.47217,18.71813,18.71813,0,0,0,1.92712-.79877,5.224,5.224,0,0,0,5.9342-1.0213Zm-2.82843-2.82843-1.71729,1.71729a1.21425,1.21425,0,0,1-1.71722,0L38.44,84.87451a14.487,14.487,0,0,1-6.01141,2.49158v1.41962A1.21435,1.21435,0,0,1,31.21429,90H28.78571a1.21435,1.21435,0,0,1-1.21429-1.21429V87.36609A14.4873,14.4873,0,0,1,21.56,84.87451l-1.00494,1.00494a1.21425,1.21425,0,0,1-1.71722,0l-1.71729-1.71729a1.21436,1.21436,0,0,1,0-1.71729L18.12549,81.44a14.48722,14.48722,0,0,1-2.49158-6.01147H14.21429A1.21426,1.21426,0,0,1,13,74.21429V71.78571a1.21427,1.21427,0,0,1,1.21429-1.21429h1.41962A14.487,14.487,0,0,1,18.12549,64.56l-1.00494-1.00494a1.21429,1.21429,0,0,1,0-1.71722l1.71729-1.71729a1.21425,1.21425,0,0,1,1.71722,0L21.56,61.12549a14.4873,14.4873,0,0,1,6.01141-2.49158V57.21429A1.21431,1.21431,0,0,1,28.78571,56h2.42859a1.21431,1.21431,0,0,1,1.21429,1.21429v1.41962A14.487,14.487,0,0,1,38.44,61.12549l1.00494-1.00494a1.21425,1.21425,0,0,1,1.71722,0l1.71729,1.71729a1.21429,1.21429,0,0,1,0,1.71722L41.87451,64.56a14.487,14.487,0,0,1,2.49158,6.01141h1.41962A1.21427,1.21427,0,0,1,47,71.78571v2.42859a1.21426,1.21426,0,0,1-1.21429,1.21423H44.36609A14.48722,14.48722,0,0,1,41.87451,81.44l1.00494,1.00488A1.21436,1.21436,0,0,1,42.87946,84.16217Z"/><path d="M30,64a9,9,0,1,0,9,9A9.01015,9.01015,0,0,0,30,64Zm0,14a5,5,0,1,1,5-5A5.00589,5.00589,0,0,1,30,78Z"/><path d="M122,34H106V31.833a1.98065,1.98065,0,0,0-.02777-.27557c-.00464-.03339-.00372-.06671-.01007-.09991a1.97632,1.97632,0,0,0-.13879-.43878c-.00342-.00763-.00391-.016-.00745-.02362L100,18.394V16a6.00656,6.00656,0,0,0-6-6H34a6.00656,6.00656,0,0,0-6,6V34H6a6.00656,6.00656,0,0,0-6,6v64a6.00656,6.00656,0,0,0,6,6H62v4H46a2,2,0,0,0,0,4H82a2,2,0,0,0,0-4H66v-4h56a6.00656,6.00656,0,0,0,6-6V40A6.00656,6.00656,0,0,0,122,34ZM94,74.833v-41h8v41Zm8,4V85H94V78.833Zm-1.126-49H95.126L98,23.60547ZM124,104a2.00229,2.00229,0,0,1-2,2H6a2.00229,2.00229,0,0,1-2-2v-2H124Zm0-6H4V40a2.00229,2.00229,0,0,1,2-2H28V48.04828c.2608-.02246.52106-.04828.78613-.04828h2.42773c.26508,0,.52533.02582.78613.04828V16a2.00229,2.00229,0,0,1,2-2H94a2.00229,2.00229,0,0,1,2,2v2.394L90.18408,30.99512c-.00354.00763-.004.016-.00745.02362a1.97632,1.97632,0,0,0-.13879.43878c-.00635.0332-.00543.06653-.01007.09991A1.98066,1.98066,0,0,0,90,31.833V85a4.00427,4.00427,0,0,0,4,4h1.72174A1.99341,1.99341,0,0,1,94,90H48.3551l-1.53784,1.53784A9.1529,9.1529,0,0,1,42.348,94H94a6.00448,6.00448,0,0,0,5.90967-5H102a4.00427,4.00427,0,0,0,4-4V38h16a2.00229,2.00229,0,0,1,2,2Z"/><path d="M72,56a2.0001,2.0001,0,0,0-2-2H48a1.9815,1.9815,0,0,0-1.22137.42676c.01257.01239.02655.02283.03906.03534l1.72046,1.72046A9.163,9.163,0,0,1,49.94226,58H70A2.0001,2.0001,0,0,0,72,56Z"/><path d="M80,66H52.93353a9.21847,9.21847,0,0,1,1.87463,4H80a2,2,0,0,0,0-4Z"/><path d="M70,74H55v.21387A9.157,9.157,0,0,1,54.165,78H70a2,2,0,0,0,0-4Z"/></svg>