<svg xmlns="http://www.w3.org/2000/svg" version="1.1" width="512" height="512">
<path d="M0 0 C168.96 0 337.92 0 512 0 C512 168.96 512 337.92 512 512 C343.04 512 174.08 512 0 512 C0 343.04 0 174.08 0 0 Z " fill="#353535" transform="translate(0,0)"/>
<path d="M0 0 C168.96 0 337.92 0 512 0 C512 168.96 512 337.92 512 512 C343.04 512 174.08 512 0 512 C0 343.04 0 174.08 0 0 Z M24 24 C24 134.88 24 245.76 24 360 C104.685 360.495 104.685 360.495 187 361 C192.61 366.28 198.22 371.56 204 377 C207.66734819 380.30606098 207.66734819 380.30606098 211.34765625 383.59765625 C214.94158459 386.85283435 218.46879036 390.17705892 222 393.5 C226.29647982 397.54284237 230.59687149 401.57288538 235 405.5 C240.04669009 410.00385283 244.96704746 414.63782131 249.89526367 419.27026367 C255.72155195 424.74531451 261.57909141 430.18460823 267.46972656 435.59033203 C269.04573867 437.04213387 270.61311309 438.50286831 272.1796875 439.96484375 C273.18215681 440.89337478 274.18475511 441.82176659 275.1875 442.75 C276.06792969 443.56984375 276.94835937 444.3896875 277.85546875 445.234375 C279.79436228 447.21186956 279.79436228 447.21186956 282 447 C282.00410889 445.77369873 282.00821777 444.54739746 282.01245117 443.28393555 C282.03420781 438.73809663 282.08846097 434.19312759 282.15258789 429.64770508 C282.17579829 427.67969087 282.19017073 425.71155191 282.19555664 423.7434082 C282.20482417 420.91538479 282.24576458 418.08933167 282.29296875 415.26171875 C282.2890361 414.38037766 282.28510345 413.49903656 282.28105164 412.59098816 C282.33630763 410.28257371 282.41403724 408.23396232 283 406 C285.54418945 404.04614258 285.54418945 404.04614258 288 403 C288 402.34 288 401.68 288 401 C288.61875 400.9175 289.2375 400.835 289.875 400.75 C292.17469437 400.21868674 292.17469437 400.21868674 292.9375 398.0625 C294 396 294 396 296.375 395.0625 C299.19976964 394.16835367 299.19976964 394.16835367 301 391.5 C303 389 303 389 305.36328125 388.09765625 C308.40065074 386.83321058 309.94766008 385.3246408 312.1875 382.9375 C315.83190395 379.08404803 315.83190395 379.08404803 318 378 C318 377.34 318 376.68 318 376 C318.70125 375.9175 319.4025 375.835 320.125 375.75 C325.98457659 374.2214148 329.92551988 370.30084012 334 366 C334.66 365.34 335.32 364.68 336 364 C335.78167414 361.1617638 335.35334968 359.46577913 333.625 357.1875 C331.93174698 355.70499171 331.93174698 355.70499171 329 356 C329 355.34 329 354.68 329 354 C328.34 354 327.68 354 327 354 C327 353.34 327 352.68 327 352 C325.32319751 350.187473 325.32319751 350.187473 323.1875 348.375 C322.47980469 347.74335938 321.77210938 347.11171875 321.04296875 346.4609375 C319.01188847 344.70916026 319.01188847 344.70916026 316 345 C315.835 344.175 315.67 343.35 315.5 342.5 C313.69819397 338.29578593 311.31151934 336.06112295 308.0234375 332.95703125 C306.28307088 331.27378091 304.79670456 329.59238674 303.3125 327.6875 C300.9965373 324.99597578 299.04152603 323.74887747 296 322 C295.13375 321.113125 294.2675 320.22625 293.375 319.3125 C291.19424068 316.65119166 291.19424068 316.65119166 288 317 C288.66 314.69 289.32 312.38 290 310 C290.57363281 309.89558594 291.14726562 309.79117187 291.73828125 309.68359375 C294.36393759 308.89000159 296.01647807 307.72844366 298.1875 306.0625 C298.88230469 305.53785156 299.57710938 305.01320313 300.29296875 304.47265625 C302.11414303 303.09263937 302.11414303 303.09263937 303 301 C303.99 300.67 304.98 300.34 306 300 C308.2085766 298.12491838 308.2085766 298.12491838 310 296 C310 295.34 310 294.68 310 294 C310.53238281 293.76667969 311.06476563 293.53335937 311.61328125 293.29296875 C314.71922016 291.61037336 317.41847924 289.48720423 320.1875 287.3125 C321.3411159 286.41272204 322.49476191 285.51298268 323.6484375 284.61328125 C324.21401367 284.17064941 324.77958984 283.72801758 325.36230469 283.27197266 C326.84745431 282.11847989 328.34866 280.98573378 329.8515625 279.85546875 C330.66367187 279.24316406 331.47578125 278.63085938 332.3125 278 C333.03050781 277.46375 333.74851562 276.9275 334.48828125 276.375 C334.98714844 275.92125 335.48601562 275.4675 336 275 C336 274.34 336 273.68 336 273 C338.66796875 272.22265625 338.66796875 272.22265625 342 272 C344.61328125 273.74609375 344.61328125 273.74609375 347.3125 276.4375 C348.35389717 277.45209961 349.39558177 278.46640424 350.4375 279.48046875 C351.00082031 280.04040527 351.56414062 280.6003418 352.14453125 281.17724609 C354.90460921 283.88865952 357.74045283 286.51698196 360.5690918 289.15649414 C365.95439103 294.18195294 371.27484224 299.2516053 376.46606445 304.47753906 C378.31195647 306.30962287 380.22164561 308.04761063 382.1875 309.75 C382.82042969 310.30171875 383.45335937 310.8534375 384.10546875 311.421875 C384.73066406 311.94265625 385.35585938 312.4634375 386 313 C386.65613281 313.56203125 387.31226563 314.1240625 387.98828125 314.703125 C390.16140706 316.36121963 390.16140706 316.36121963 394 316 C394.309375 314.824375 394.309375 314.824375 394.625 313.625 C395.07875 312.75875 395.5325 311.8925 396 311 C397.27037109 310.63068359 397.27037109 310.63068359 398.56640625 310.25390625 C403.30840844 308.52218532 406.5168191 305.57667581 410.3125 302.3125 C411.81682134 301.04191784 413.32202184 299.7723758 414.828125 298.50390625 C415.54548828 297.89691895 416.26285156 297.28993164 417.00195312 296.66455078 C420.12048202 294.0665388 423.35680597 291.63432757 426.62890625 289.234375 C427.30759766 288.62335938 427.30759766 288.62335938 428 288 C428 287.34 428 286.68 428 286 C428.8353125 285.9071875 428.8353125 285.9071875 429.6875 285.8125 C432.95613431 284.66406092 434.58715696 282.46895567 437 280 C438.13964622 279.00968673 439.30753528 278.05103551 440.5 277.125 C441.0465625 276.69445312 441.593125 276.26390625 442.15625 275.8203125 C444.90909792 274.59552847 446.18091244 274.95064983 449 276 C451.08872711 277.82655584 452.93384582 279.6056817 454.8125 281.625 C455.87564461 282.72975369 456.94074672 283.83262699 458.0078125 284.93359375 C458.52118164 285.46581543 459.03455078 285.99803711 459.56347656 286.54638672 C461.3570355 288.36128304 463.24320639 290.03602169 465.1875 291.6875 C468.10183137 294.16739688 470.8122154 296.7755846 473.5 299.5 C480.12774614 306.55104782 480.12774614 306.55104782 488 312 C488 216.96 488 121.92 488 24 C334.88 24 181.76 24 24 24 Z " fill="#CCCBCB" transform="translate(0,0)"/>
<path d="M0 0 C52.7298031 -0.64484855 52.7298031 -0.64484855 74.88476562 -0.78125 C90.1620918 -0.87606521 105.43800256 -0.98731367 120.71411133 -1.20703125 C131.84157753 -1.36700162 142.96789193 -1.46984601 154.09647614 -1.50541592 C159.98438807 -1.52619571 165.86900638 -1.574671 171.75585747 -1.69168091 C177.30967142 -1.80116569 182.85887127 -1.8336194 188.41366196 -1.8097229 C190.4402123 -1.81408681 192.46693393 -1.84541291 194.49254417 -1.9072876 C204.98485608 -2.21177797 212.22672274 -1.57069515 220.28480631 5.62815189 C223.08570689 8.37752332 225.74776558 11.21770426 228.34362328 14.16076851 C230.43121256 16.47881603 232.6989308 18.53000796 235.0625 20.5625 C240.09214353 25.04469933 244.99179728 29.66070953 249.89990234 34.27490234 C254.14522604 38.2646881 258.40368577 42.23906635 262.6875 46.1875 C263.20755615 46.66703125 263.7276123 47.1465625 264.26342773 47.640625 C266.98888813 50.15186633 269.71811803 52.65895749 272.44921875 55.1640625 C277.52827693 59.82909047 282.56843337 64.50451088 287.3984375 69.4296875 C289.18269706 71.17913223 291.04396124 72.80715582 292.9375 74.4375 C295.74576347 76.85617779 298.39970593 79.35899683 301 82 C305.40624659 86.46660614 310.09666828 90.54240801 314.8828125 94.59375 C318.41886077 97.59403338 321.75779184 100.67673663 325 104 C326.26950192 105.27216335 327.54039265 106.54294196 328.8125 107.8125 C329.875 108.875 330.9375 109.9375 332 111 C335.71988507 109.39068802 338.48709427 107.05425667 341.5625 104.4375 C342.63899205 103.52825396 343.71582184 102.61940765 344.79296875 101.7109375 C345.60193604 101.02596191 345.60193604 101.02596191 346.42724609 100.32714844 C352.79792117 94.95133507 359.30210238 89.74976951 365.875 84.625 C371.06133635 80.57948811 376.10958084 76.40356858 381.10498047 72.12548828 C385.56025108 68.32806095 390.14479654 64.71782139 394.76733398 61.12719727 C398.78494648 57.99235605 402.69434734 54.7544774 406.5625 51.4375 C410.75815941 47.84040527 415.02862721 44.39465578 419.4375 41.0625 C424.82040693 36.99243742 429.94645235 32.67725308 435.04394531 28.25683594 C438.87145988 24.94452243 442.77173369 21.77415874 446.796875 18.703125 C450.23641727 16.04418806 453.57987336 13.26980711 456.93359375 10.50390625 C469.79719189 0 469.79719189 0 512 0 C512 42.24 512 84.48 512 128 C343.04 128 174.08 128 0 128 C0 85.76 0 43.52 0 0 Z " fill="#FEFEFE" transform="translate(0,384)"/>
<path d="M0 0 C7.17182986 2.81538775 12.71574806 9.6646313 18.0078125 15.0390625 C19.90327074 16.90478806 21.85446735 18.64659255 23.875 20.375 C27.06682509 23.11621449 30.04302977 26.00685888 33 29 C42.19123515 39.11469105 42.19123515 39.11469105 54 45 C54.20625 44.236875 54.4125 43.47375 54.625 42.6875 C56 40 56 40 58.55859375 38.7578125 C63.04814505 36.46462511 66.59958624 33.42817873 70.4375 30.1875 C71.16259766 29.58357422 71.88769531 28.97964844 72.63476562 28.35742188 C75.45565007 26.00288311 78.26913637 23.64517009 81.02392578 21.21337891 C81.64638184 20.66472168 82.26883789 20.11606445 82.91015625 19.55078125 C83.45937744 19.05876221 84.00859863 18.56674316 84.57446289 18.05981445 C86 17 86 17 88 17 C88 16.34 88 15.68 88 15 C89.051875 14.443125 90.10375 13.88625 91.1875 13.3125 C94.6859854 11.32344177 97.22389676 8.92616288 100 6 C102 4.125 102 4.125 104 3 C108.31016477 3.14888307 110.3700318 4.96008162 113.29956055 7.9987793 C113.79883057 8.53543213 114.29810059 9.07208496 114.8125 9.625 C115.87564461 10.72975369 116.94074672 11.83262699 118.0078125 12.93359375 C118.77786621 13.73192627 118.77786621 13.73192627 119.56347656 14.54638672 C121.3570355 16.36128304 123.24320639 18.03602169 125.1875 19.6875 C128.91752825 22.8614992 132.32209839 26.30168415 135.75390625 29.79296875 C138.49850053 32.48983096 141.3942172 34.95890498 144.37109375 37.39453125 C146.13562275 39.13367135 146.93640392 40.78456188 148 43 C149.3153341 43.70151152 150.65117592 44.36525925 152 45 C154.45740785 46.69951839 155.81211819 48.04131065 156.39730835 51.02731323 C156.58099548 53.63856891 156.63300388 56.22205654 156.63671875 58.83984375 C156.65313164 60.27850548 156.65313164 60.27850548 156.6698761 61.74623108 C156.68572954 63.772742 156.69094103 65.79936017 156.6862793 67.82592773 C156.68749477 70.92417488 156.74727181 74.01771065 156.81054688 77.11523438 C156.81868828 79.08592595 156.82336086 81.05663554 156.82421875 83.02734375 C156.84779953 83.95143539 156.87138031 84.87552704 156.89567566 85.82762146 C156.80567369 92.13416429 156.80567369 92.13416429 154.46743774 94.64700317 C152.69698589 95.90489133 150.89193439 96.93915826 149 98 C148.236875 98.763125 147.47375 99.52625 146.6875 100.3125 C143.66027287 103.33972713 140.42749475 105.91573549 137.0703125 108.56640625 C133.37676419 111.49398971 129.71837826 114.46310251 126.0625 117.4375 C125.0262146 118.27994263 125.0262146 118.27994263 123.96899414 119.1394043 C119.13660109 123.06982676 114.31681098 127.01534546 109.5 130.96484375 C107.05638273 132.95410093 104.59353206 134.91678948 102.125 136.875 C98.24352885 139.96546044 94.457693 143.15124424 90.6875 146.375 C85.86582522 150.49307057 80.92697071 154.40379448 75.87353516 158.23217773 C71.43334988 161.61660339 67.18258997 165.19080449 62.9453125 168.82421875 C58.47555574 172.6401262 53.876501 176.26652371 49.23510742 179.87036133 C45.19283364 183.02370527 41.26454568 186.28569126 37.375 189.625 C33.37489785 193.0571827 29.31266371 196.31320747 25.0625 199.4375 C19.83249775 203.29082176 14.92640406 207.4255471 10.0222168 211.67700195 C-2.28979278 222.33523663 -2.28979278 222.33523663 -8 225 C-8.8353125 224.14728516 -8.8353125 224.14728516 -9.6875 223.27734375 C-13.99983616 218.91401713 -18.37905737 214.73835279 -23.03515625 210.74609375 C-25.81561832 208.27518611 -28.39118218 205.6183306 -31 202.96875 C-32.93891002 201.06013545 -34.93699551 199.27289448 -37 197.5 C-40.50380226 194.48891993 -43.74011217 191.2822969 -46.9765625 187.98828125 C-49.64653707 185.3646962 -52.46878189 182.94749566 -55.3359375 180.54296875 C-57.39954897 178.62952619 -58.8799768 176.96403158 -59.2361908 174.10290527 C-59.2290657 173.39025513 -59.22194061 172.67760498 -59.21459961 171.94335938 C-59.21056625 171.13241821 -59.2065329 170.32147705 -59.20237732 169.48596191 C-59.18586624 168.61403198 -59.16935516 167.74210205 -59.15234375 166.84375 C-59.13917618 165.94507202 -59.12600861 165.04639404 -59.11244202 164.1204834 C-59.08001917 162.22068013 -59.04182108 160.32096795 -58.99829102 158.42138672 C-58.93773243 155.51116991 -58.91448368 152.60213739 -58.89257812 149.69140625 C-58.85646314 147.84630779 -58.81812622 146.0012512 -58.77734375 144.15625 C-58.77500229 143.28432007 -58.77266083 142.41239014 -58.77024841 141.51403809 C-58.69676034 139.23059066 -58.59687643 137.20563833 -58 135 C-55.51391602 133.05273438 -55.51391602 133.05273438 -53 132 C-52.505 131.01 -52.505 131.01 -52 130 C-51.236875 129.54625 -50.47375 129.0925 -49.6875 128.625 C-46.03251359 126.41500822 -43.51519442 123.55586766 -40.625 120.4375 C-38 118 -38 118 -35.1875 116.6875 C-31.25893598 114.60767199 -28.7409983 111.87839934 -25.734375 108.64453125 C-24 107 -24 107 -22 107 C-22 106.34 -22 105.68 -22 105 C-19.09072943 103.51153599 -16.26958309 102.09585176 -13.1875 101 C-12.465625 100.67 -11.74375 100.34 -11 100 C-10.505 98.515 -10.505 98.515 -10 97 C-8.37667033 95.61423077 -6.71275535 94.27358732 -5 93 C-5.11341534 90.59122743 -5.11341534 90.59122743 -6 88 C-8.49759982 86.30117552 -8.49759982 86.30117552 -11 85 C-11 84.34 -11 83.68 -11 83 C-11.66 83 -12.32 83 -13 83 C-13 82.34 -13 81.68 -13 81 C-13.86625 80.62875 -13.86625 80.62875 -14.75 80.25 C-17.29879381 78.83400344 -18.94723215 77.05276785 -21 75 C-21.99 74.67 -22.98 74.34 -24 74 C-24.5878125 72.7315625 -24.5878125 72.7315625 -25.1875 71.4375 C-27.28592271 67.45773279 -29.85287109 64.97462691 -33.078125 61.890625 C-35 60 -35 60 -37.1875 57.1875 C-39.23024331 54.72212014 -41.25107166 53.60912878 -44 52 C-45.66666667 50.33333333 -47.33333333 48.66666667 -49 47 C-49.99 46.67 -50.98 46.34 -52 46 C-51.125 41.25 -51.125 41.25 -50 39 C-48.28365243 38.04280616 -46.56617528 37.08750537 -44.83984375 36.1484375 C-42.71824549 34.92018203 -42.71824549 34.92018203 -40.3125 32.3125 C-37.91422899 29.91422899 -37.10304656 29.74901124 -34 29 C-32.71563266 27.0162233 -32.71563266 27.0162233 -32 25 C-31.34 25 -30.68 25 -30 25 C-30 24.34 -30 23.68 -30 23 C-28.2808104 21.58084349 -26.4962319 20.24061434 -24.6875 18.9375 C-19.47528347 15.13255856 -14.44465782 11.16005602 -9.47265625 7.04296875 C-2.40193705 1.20096852 -2.40193705 1.20096852 0 0 Z " fill="#BFFE02" transform="translate(340,271)"/>
<path d="M0 0 C5.46052415 3.85374341 10.16566141 8.0412809 14.83203125 12.828125 C17.21008156 15.21046009 19.69343227 17.38553549 22.296875 19.515625 C24.10508574 21.09158849 25.77886564 22.77476519 27.46533203 24.47900391 C30.76130378 27.74561287 34.1756209 30.89075313 37.5625 34.0625 C39.06436254 35.46945406 40.56568221 36.87698788 42.06640625 38.28515625 C42.72584229 38.90269775 43.38527832 39.52023926 44.06469727 40.15649414 C44.70334717 40.76485107 45.34199707 41.37320801 46 42 C46.74113037 42.69536865 47.48226074 43.3907373 48.24584961 44.10717773 C50 46 50 46 50 48 C49.34 48 48.68 48 48 48 C48 48.66 48 49.32 48 50 C47.34 50 46.68 50 46 50 C46 50.66 46 51.32 46 52 C44.57421875 53.5078125 44.57421875 53.5078125 42.6875 55.125 C42.07261719 55.66382813 41.45773437 56.20265625 40.82421875 56.7578125 C39 58 39 58 36 58 C36 58.66 36 59.32 36 60 C30.91930046 65.36446202 24.61022516 69.98509944 17.828125 72.94921875 C15.65419091 73.92924548 15.65419091 73.92924548 15 77 C14.34 77 13.68 77 13 77 C12.505 78.485 12.505 78.485 12 80 C10.948125 80.4021875 10.948125 80.4021875 9.875 80.8125 C6.44225784 82.23037176 4.32347018 84.22803047 1.6484375 86.7578125 C0 88 0 88 -3 88 C-2.71240073 91.35728127 -2.27346001 92.72802889 0.15234375 95.140625 C1.53099609 96.18476563 1.53099609 96.18476563 2.9375 97.25 C11.64097839 104.06044384 19.54269618 111.48182904 27.30834961 119.32519531 C31.37708117 123.41995804 35.56469512 127.30222873 40 131 C40.57621094 131.49242187 41.15242187 131.98484375 41.74609375 132.4921875 C44.69335592 135.00840606 44.69335592 135.00840606 48 137 C48 138.32 48 139.64 48 141 C48.59941406 141.10570312 49.19882812 141.21140625 49.81640625 141.3203125 C52.30968729 142.0963964 53.21160798 142.95309254 54.9375 144.875 C56.66998968 146.79569886 58.07011742 148.03998334 60.3359375 149.33203125 C63.62678374 151.39242911 66.09483485 153.96585949 68.6875 156.8125 C69.17283203 157.32103516 69.65816406 157.82957031 70.15820312 158.35351562 C72.54793724 160.95420557 73.98176973 162.94399293 75.08203125 166.32421875 C75.38496094 167.20722656 75.68789063 168.09023438 76 169 C77.89233598 169.76487045 77.89233598 169.76487045 80 170 C81.921875 171.33984375 81.921875 171.33984375 83.75 172.9375 C84.36359375 173.46214844 84.9771875 173.98679687 85.609375 174.52734375 C87 176 87 176 87 178 C87.66 178 88.32 178 89 178 C89 178.66 89 179.32 89 180 C89.8971875 180.1546875 89.8971875 180.1546875 90.8125 180.3125 C93.38757109 181.12180806 94.48151913 181.76223872 96 184 C96 186.4375 96 186.4375 95 189 C92.625 191.125 92.625 191.125 90 193 C89.525625 193.495 89.05125 193.99 88.5625 194.5 C85.39685181 197.53902226 82.45929864 200 78 200 C78 200.66 78 201.32 78 202 C76.35546875 203.62109375 76.35546875 203.62109375 74.1875 205.4375 C71.1963804 207.95516889 71.1963804 207.95516889 68.38671875 210.66796875 C67 212 67 212 64.625 212.875 C61.31839577 214.2921161 59.49172672 216.44270152 57 219 C56.01 219.33 55.02 219.66 54 220 C53.690625 220.66 53.38125 221.32 53.0625 222 C52.711875 222.66 52.36125 223.32 52 224 C50.67405895 224.36162029 49.34061543 224.69728039 48 225 C47.67 225.99 47.34 226.98 47 228 C45.02 228.99 45.02 228.99 43 230 C42.67 243.53 42.34 257.06 42 271 C38.82109419 269.41054709 37.19290411 268.45655806 34.75 266.12890625 C34.14800781 265.56042969 33.54601562 264.99195313 32.92578125 264.40625 C32.29027344 263.7978125 31.65476562 263.189375 31 262.5625 C29.64627206 261.28208808 28.29210048 260.00214504 26.9375 258.72265625 C26.26847656 258.08859863 25.59945312 257.45454102 24.91015625 256.80126953 C22.29884788 254.33881642 19.65241124 251.91816297 17 249.5 C12.4946612 245.38169702 8.02126926 241.23115745 3.5625 237.0625 C-5.20434577 228.86665347 -14.01892601 220.72434671 -22.875 212.625 C-28.1598587 207.78812932 -33.39304804 202.8978266 -38.62207031 198.00073242 C-42.76079699 194.13316 -46.95505183 190.33975363 -51.21484375 186.60546875 C-52.76213813 185.21391954 -54.23302589 183.73829909 -55.6875 182.25 C-57.97145459 179.88709062 -57.97145459 179.88709062 -60.9375 178.0625 C-64.49433311 175.66708178 -67.10983171 173.16542241 -70 170 C-70 169.34 -70 168.68 -70 168 C-70.5775 167.71125 -71.155 167.4225 -71.75 167.125 C-72.86375 166.568125 -72.86375 166.568125 -74 166 C-75.0209375 165.62875 -75.0209375 165.62875 -76.0625 165.25 C-78 164 -78 164 -79.1875 161.3125 C-81.41591706 157.23987571 -84.0987965 155.37709966 -87.7890625 152.66015625 C-90.45373428 150.65929847 -92.71046976 148.41672637 -95 146 C-98.29872011 142.58159603 -98.29872011 142.58159603 -101.96768188 139.58428955 C-105.06467108 137.26637201 -107.53397908 135.37607427 -108.80072021 131.63562012 C-109.15511098 128.87254014 -109.26578951 126.20767606 -109.2734375 123.421875 C-109.29532135 122.41465393 -109.3172052 121.40743286 -109.3397522 120.36968994 C-109.37137968 118.24520238 -109.38190432 116.12030788 -109.37255859 113.99560547 C-109.37498691 110.76740657 -109.49436541 107.5574401 -109.62109375 104.33203125 C-109.89443815 88.39880788 -109.89443815 88.39880788 -105.08496094 83.31054688 C-102.18353869 80.82493467 -99.04502719 78.86061111 -95.71710205 76.99768066 C-93.39828337 75.65038709 -91.42886677 74.00379097 -89.40625 72.25 C-88.75624023 71.71028564 -88.10623047 71.17057129 -87.43652344 70.61450195 C-86.7974707 70.08171631 -86.15841797 69.54893066 -85.5 69 C-80.30692013 64.69427792 -75.07549982 60.45330811 -69.75 56.3125 C-64.59984654 52.30609145 -59.5884515 48.16462779 -54.62768555 43.92651367 C-50.53939084 40.43782713 -46.37660099 37.05858225 -42.16015625 33.7265625 C-40.23638808 32.18893948 -38.36447153 30.60838749 -36.5 29 C-34 27 -34 27 -32 27 C-32 26.34 -32 25.68 -32 25 C-30.53125 23.72070312 -30.53125 23.72070312 -28.5 22.28125 C-24.20460528 19.16557637 -20.09775635 15.86944419 -16 12.5 C-10.76366486 8.19434161 -5.4550309 4.0259869 0 0 Z " fill="#FD5D5B" transform="translate(240,176)"/>
<path d="M0 0 C2.39825962 0.96855001 3.63957839 2.09518655 5.4296875 3.95629883 C6.05294922 4.59446533 6.67621094 5.23263184 7.31835938 5.89013672 C7.96869141 6.56939209 8.61902344 7.24864746 9.2890625 7.94848633 C10.63622535 9.32654593 11.98516375 10.7028722 13.3359375 12.07739258 C13.97853516 12.73239746 14.62113281 13.38740234 15.28320312 14.06225586 C18.38086848 17.16939683 21.66523486 20.02359719 25.0390625 22.82348633 C29.21780163 26.35122189 33.16942588 29.9538497 37.0390625 33.82348633 C39.39521092 35.91649103 41.76595719 37.99097957 44.1484375 40.05395508 C46.0390625 41.82348633 46.0390625 41.82348633 47.0390625 43.82348633 C48.0290625 44.15348633 49.0190625 44.48348633 50.0390625 44.82348633 C50.16595545 51.28282673 50.25345218 57.74184517 50.3137207 64.20214844 C50.33884759 66.39921073 50.37295496 68.59618957 50.41625977 70.79296875 C50.47699012 73.95309038 50.50529083 77.1121059 50.52734375 80.27270508 C50.55315018 81.2530925 50.5789566 82.23347992 50.60554504 83.24357605 C50.6083619 90.10999407 50.6083619 90.10999407 47.60229492 93.87744141 C46.75642822 94.51963623 45.91056152 95.16183105 45.0390625 95.82348633 C44.5440625 96.38036133 44.0490625 96.93723633 43.5390625 97.51098633 C42.0390625 98.82348633 42.0390625 98.82348633 39.7890625 99.69848633 C36.6400099 100.98673512 34.2756848 102.73951445 31.58984375 104.80004883 C30.0390625 105.82348633 30.0390625 105.82348633 28.0390625 105.82348633 C27.7503125 106.44223633 27.4615625 107.06098633 27.1640625 107.69848633 C26.0390625 109.82348633 26.0390625 109.82348633 24.0390625 111.82348633 C22.7190625 111.82348633 21.3990625 111.82348633 20.0390625 111.82348633 C25.03519408 118.08323096 30.79453939 123.43906345 36.70727539 128.81030273 C40.14531473 131.95549 43.24480584 135.06715649 46.0390625 138.82348633 C45.15154297 139.38616211 45.15154297 139.38616211 44.24609375 139.96020508 C40.58488355 142.33133142 37.32329053 144.5392583 34.2265625 147.63598633 C32.05782152 149.8047273 31.03343592 150.49077817 28.0390625 150.82348633 C28.0390625 151.48348633 28.0390625 152.14348633 28.0390625 152.82348633 C26.1953125 154.53051758 26.1953125 154.53051758 23.5390625 156.63598633 C22.54648437 157.42618164 21.55390625 158.21637695 20.53125 159.03051758 C19.97791992 159.46960449 19.42458984 159.90869141 18.85449219 160.36108398 C16.85429654 161.97232281 14.88735303 163.61931616 12.921875 165.27270508 C12.21740234 165.86011475 11.51292969 166.44752441 10.78710938 167.05273438 C9.38971461 168.21824774 7.99761354 169.39014232 6.61132812 170.56884766 C3.06257863 173.50342433 0.70469561 175.19159168 -3.9609375 175.82348633 C-5.33560375 178.29984645 -5.33560375 178.29984645 -5.9609375 180.82348633 C-9.79172339 180.29601151 -11.83302785 179.46178778 -14.6484375 176.82348633 C-15.33421875 176.1918457 -16.02 175.56020508 -16.7265625 174.90942383 C-17.46390625 174.22106445 -18.20125 173.53270508 -18.9609375 172.82348633 C-20.60593704 171.36421254 -22.25180116 169.9059129 -23.8984375 168.44848633 C-28.01158815 164.74476108 -31.92322311 160.88457807 -35.80859375 156.94458008 C-38.42938336 154.36184186 -41.186798 151.97739021 -43.98046875 149.58520508 C-46.8203035 147.05904044 -49.458925 144.35035875 -52.1015625 141.62036133 C-53.97871722 139.80630424 -55.75314139 138.22088109 -57.9609375 136.82348633 C-61.15329022 137.04922524 -61.15329022 137.04922524 -63.9609375 137.82348633 C-64.2909375 138.81348633 -64.6209375 139.80348633 -64.9609375 140.82348633 C-66.45703125 142.14770508 -66.45703125 142.14770508 -68.3984375 143.51098633 C-74.33150791 147.7900533 -80.03018605 152.36764497 -85.63671875 157.06567383 C-87.9609375 158.82348633 -87.9609375 158.82348633 -89.9609375 158.82348633 C-89.9609375 159.48348633 -89.9609375 160.14348633 -89.9609375 160.82348633 C-92.27028837 163.45136836 -93.60076857 164.70343002 -96.9609375 165.82348633 C-98.64967629 167.46778462 -100.31399265 169.1373285 -101.9609375 170.82348633 C-106.50147804 174.82348633 -106.50147804 174.82348633 -109.9609375 174.82348633 C-110.2909375 175.81348633 -110.6209375 176.80348633 -110.9609375 177.82348633 C-115.68485934 177.37039258 -117.58231403 175.6112872 -120.7734375 172.19848633 C-123.66440153 169.18441223 -126.51082666 166.25745026 -129.7109375 163.57348633 C-133.64228954 160.22308307 -137.21760247 156.5655347 -140.8359375 152.88598633 C-147.05306743 146.58346309 -153.61401945 141.0790241 -160.69921875 135.77270508 C-162.9609375 133.82348633 -162.9609375 133.82348633 -163.5859375 131.26098633 C-162.9609375 128.82348633 -162.9609375 128.82348633 -160.8359375 127.32348633 C-159.8871875 126.82848633 -158.9384375 126.33348633 -157.9609375 125.82348633 C-156.92306425 124.96876718 -155.90249576 124.0926858 -154.8984375 123.19848633 C-151.9609375 120.82348633 -151.9609375 120.82348633 -149.8359375 120.32348633 C-147.71184681 119.95573389 -147.71184681 119.95573389 -146.2109375 117.63598633 C-141.678292 111.97017946 -134.85419362 107.12123837 -127.9609375 104.82348633 C-126.75211654 102.82332167 -126.75211654 102.82332167 -125.9609375 100.82348633 C-125.3009375 100.82348633 -124.6409375 100.82348633 -123.9609375 100.82348633 C-123.9609375 100.16348633 -123.9609375 99.50348633 -123.9609375 98.82348633 C-122.31022354 97.79736684 -120.64123744 96.8004049 -118.9609375 95.82348633 C-118.4040625 95.26661133 -117.8471875 94.70973633 -117.2734375 94.13598633 C-116.8403125 93.70286133 -116.4071875 93.26973633 -115.9609375 92.82348633 C-115.3009375 92.82348633 -114.6409375 92.82348633 -113.9609375 92.82348633 C-113.9609375 92.16348633 -113.9609375 91.50348633 -113.9609375 90.82348633 C-113.3009375 90.82348633 -112.6409375 90.82348633 -111.9609375 90.82348633 C-111.9609375 90.16348633 -111.9609375 89.50348633 -111.9609375 88.82348633 C-111.3009375 88.82348633 -110.6409375 88.82348633 -109.9609375 88.82348633 C-109.9609375 88.16348633 -109.9609375 87.50348633 -109.9609375 86.82348633 C-108.63921568 85.93043104 -107.31099415 85.04646318 -105.96484375 84.19067383 C-101.98558933 81.4757829 -98.36051568 78.28856316 -94.65332031 75.21850586 C-90.75453619 72.00476488 -86.82249782 68.83149108 -82.89648438 65.65112305 C-79.76982975 63.11577487 -76.65072081 60.57354571 -73.5625 57.99145508 C-72.08910156 56.76362305 -72.08910156 56.76362305 -70.5859375 55.51098633 C-69.30589844 54.43397461 -69.30589844 54.43397461 -68 53.33520508 C-65.9609375 51.82348633 -65.9609375 51.82348633 -63.9609375 51.82348633 C-63.9609375 51.16348633 -63.9609375 50.50348633 -63.9609375 49.82348633 C-62.20097502 48.34205704 -60.37326866 46.94104816 -58.5234375 45.57348633 C-52.9856736 41.42152356 -47.60114498 37.1165708 -42.2734375 32.69848633 C-37.09180839 28.40743191 -31.89493293 24.14374173 -26.62890625 19.95629883 C-22.97440387 17.03483719 -19.34240049 14.08600992 -15.7109375 11.13598633 C-14.69954712 10.31505493 -14.69954712 10.31505493 -13.66772461 9.47753906 C-13.01682861 8.94845947 -12.36593262 8.41937988 -11.6953125 7.87426758 C-11.06302734 7.36460449 -10.43074219 6.85494141 -9.77929688 6.32983398 C-8.5887209 5.34354857 -7.42165956 4.32799725 -6.28320312 3.28198242 C-2.43318414 -0.21902292 -2.43318414 -0.21902292 0 0 Z " fill="#619FFC" transform="translate(399.9609375,135.176513671875)"/>
<path d="M0 0 C0.17323943 6.03215891 0.30015941 12.06286615 0.38452148 18.09692383 C0.41969144 20.14861272 0.4674374 22.20012657 0.52807617 24.2512207 C0.61315022 27.2030757 0.65272151 30.15261025 0.68359375 33.10546875 C0.71972275 34.02023483 0.75585175 34.93500092 0.79307556 35.87748718 C0.79692394 42.14092088 0.79692394 42.14092088 -1.52365112 44.64248657 C-3.29687927 45.9019188 -5.10527073 46.93761903 -7 48 C-7.763125 48.763125 -8.52625 49.52625 -9.3125 50.3125 C-12.33972713 53.33972713 -15.57250525 55.91573549 -18.9296875 58.56640625 C-22.62323581 61.49398971 -26.28162174 64.46310251 -29.9375 67.4375 C-30.9737854 68.27994263 -30.9737854 68.27994263 -32.03100586 69.1394043 C-36.86339891 73.06982676 -41.68318902 77.01534546 -46.5 80.96484375 C-48.94361727 82.95410093 -51.40646794 84.91678948 -53.875 86.875 C-57.75647115 89.96546044 -61.542307 93.15124424 -65.3125 96.375 C-70.13417478 100.49307057 -75.07302929 104.40379448 -80.12646484 108.23217773 C-84.56665012 111.61660339 -88.81741003 115.19080449 -93.0546875 118.82421875 C-97.52444426 122.6401262 -102.123499 126.26652371 -106.76489258 129.87036133 C-110.80716636 133.02370527 -114.73545432 136.28569126 -118.625 139.625 C-122.62510215 143.0571827 -126.68733629 146.31320747 -130.9375 149.4375 C-136.16750225 153.29082176 -141.07359594 157.4255471 -145.9777832 161.67700195 C-158.28979278 172.33523663 -158.28979278 172.33523663 -164 175 C-164.8353125 174.14728516 -164.8353125 174.14728516 -165.6875 173.27734375 C-169.99983616 168.91401713 -174.37905737 164.73835279 -179.03515625 160.74609375 C-181.81561832 158.27518611 -184.39118218 155.6183306 -187 152.96875 C-188.93891002 151.06013545 -190.93699551 149.27289448 -193 147.5 C-196.50380226 144.48891993 -199.74011217 141.2822969 -202.9765625 137.98828125 C-205.64653707 135.3646962 -208.46878189 132.94749566 -211.3359375 130.54296875 C-213.41094842 128.61895628 -214.8975189 126.97008085 -215.20254517 124.0827179 C-215.18033905 123.36101913 -215.15813293 122.63932037 -215.13525391 121.89575195 C-215.10499619 120.6648156 -215.10499619 120.6648156 -215.0741272 119.40901184 C-215.04193085 118.52767075 -215.0097345 117.64632965 -214.9765625 116.73828125 C-214.95153656 115.83248825 -214.92651062 114.92669525 -214.90072632 113.99345398 C-214.81853209 111.09942164 -214.72194031 108.20607231 -214.625 105.3125 C-214.56675985 103.35093939 -214.50945658 101.38935072 -214.453125 99.42773438 C-214.31295407 94.61809651 -214.15986893 89.8090218 -214 85 C-211.02183282 86.42432416 -209.02068318 87.77903265 -206.75 90.1875 C-204.29973408 92.71596589 -201.80167949 95.08755876 -199.125 97.375 C-196.1153247 99.96634205 -193.28911384 102.67254783 -190.5 105.5 C-187.77170593 108.26560408 -185.01483166 110.91287031 -182.0625 113.4375 C-177.91020328 116.99066773 -174.1106122 120.85472252 -170.296875 124.765625 C-168.28989522 126.71799308 -166.2827979 128.3873813 -164 130 C-156.39304205 126.42037873 -150.04598899 120.46591862 -143.625 115.125 C-142.11891647 113.87839032 -140.61240899 112.63229266 -139.10546875 111.38671875 C-138.03498291 110.50185791 -138.03498291 110.50185791 -136.94287109 109.59912109 C-133.86791093 107.06821018 -130.75473762 104.58685009 -127.63671875 102.109375 C-124.15593035 99.32474428 -120.70472234 96.50435856 -117.25 93.6875 C-112.16915085 89.54512128 -107.05116385 85.45998474 -101.875 81.4375 C-96.38747821 77.16890592 -91.09898446 72.70335037 -85.84960938 68.14624023 C-82.23185099 65.01687923 -78.55967741 62.04212523 -74.6484375 59.28125 C-72.88839055 57.96805892 -72.88839055 57.96805892 -71.078125 56.078125 C-68.95204621 53.95204621 -66.74189228 52.10235048 -64.375 50.25 C-63.59898437 49.63640625 -62.82296875 49.0228125 -62.0234375 48.390625 C-60 47 -60 47 -58 47 C-58 46.34 -58 45.68 -58 45 C-56.23682292 43.65998542 -54.4661942 42.32926815 -52.671875 41.03125 C-49.37287162 38.52323574 -46.2553944 35.83859848 -43.125 33.125 C-38.4113777 29.05058663 -33.65610333 25.06140114 -28.765625 21.19921875 C-26.53400685 19.42464104 -24.31816896 17.6347502 -22.109375 15.83203125 C-21.41183105 15.26282959 -20.71428711 14.69362793 -19.99560547 14.10717773 C-18.62390828 12.98673201 -17.25308028 11.86522099 -15.88330078 10.74243164 C-12.5015581 7.9831967 -9.09266451 5.26238689 -5.6328125 2.6015625 C-4.9845752 2.10221191 -4.33633789 1.60286133 -3.66845703 1.08837891 C-2 0 -2 0 0 0 Z " fill="#73C302" transform="translate(496,321)"/>
<path d="M0 0 C9 9 9 9 11.0390625 11.07421875 C15.25602439 15.34190011 19.5482606 19.41491127 24.1015625 23.3203125 C26.59096719 25.5228722 28.8945103 27.88352636 31.22265625 30.25390625 C33.06593574 32.06477643 34.97822799 33.75321354 36.9375 35.4375 C39.74576347 37.85617779 42.39970593 40.35899683 45 43 C47.53972186 45.5792506 50.12451314 48.02217389 52.875 50.375 C56.06682509 53.11621449 59.04302977 56.00685888 62 59 C64.91626603 61.95183025 67.84605835 64.80388859 71 67.5 C74.15394165 70.19611141 77.08373397 73.04816975 80 76 C82.87557659 78.91053801 85.75874094 81.72424022 88.875 84.375 C92.95217045 87.85792698 96.69652562 91.63704073 100.43701172 95.47412109 C103.78181621 98.87798495 107.28573579 102.03034752 110.89404297 105.15234375 C114.53360767 108.34550694 118.04348029 111.67524292 121.5625 115 C122.27857422 115.67289062 122.99464844 116.34578125 123.73242188 117.0390625 C127.12628895 120.23837668 130.48326246 123.46348231 133.76953125 126.7734375 C136.14217998 129.16268765 138.55695811 131.44377614 141.125 133.625 C142.42972535 134.73482861 143.72059307 135.86107697 145 137 C145.85601807 137.66201416 146.71203613 138.32402832 147.59399414 139.00610352 C150.9793915 143.21869893 150.6399394 146.4284686 150.48828125 151.67578125 C150.47766914 153.06351997 150.47766914 153.06351997 150.46684265 154.47929382 C150.43892815 157.42453003 150.37619557 160.36784173 150.3125 163.3125 C150.2874133 165.31312352 150.26460078 167.31377694 150.24414062 169.31445312 C150.18911108 174.21037316 150.10285901 179.10486068 150 184 C147.16870509 182.63259877 145.03092179 181.30221781 142.75 179.12890625 C142.14800781 178.56042969 141.54601562 177.99195313 140.92578125 177.40625 C139.97251953 176.49359375 139.97251953 176.49359375 139 175.5625 C137.64627206 174.28208808 136.29210048 173.00214504 134.9375 171.72265625 C134.26847656 171.08859863 133.59945312 170.45454102 132.91015625 169.80126953 C130.29884788 167.33881642 127.65241124 164.91816297 125 162.5 C120.4946612 158.38169702 116.02126926 154.23115745 111.5625 150.0625 C102.79565423 141.86665347 93.98107399 133.72434671 85.125 125.625 C79.8401413 120.78812932 74.60695196 115.8978266 69.37792969 111.00073242 C65.23920301 107.13316 61.04494817 103.33975363 56.78515625 99.60546875 C55.23786187 98.21391954 53.76697411 96.73829909 52.3125 95.25 C50.02854541 92.88709062 50.02854541 92.88709062 47.0625 91.0625 C43.50566689 88.66708178 40.89016829 86.16542241 38 83 C38 82.34 38 81.68 38 81 C37.4225 80.71125 36.845 80.4225 36.25 80.125 C35.13625 79.568125 35.13625 79.568125 34 79 C32.9790625 78.62875 32.9790625 78.62875 31.9375 78.25 C30 77 30 77 28.8125 74.3125 C26.58408294 70.23987571 23.9012035 68.37709966 20.2109375 65.66015625 C17.54626572 63.65929847 15.28953024 61.41672637 13 59 C9.70134017 55.57677855 9.70134017 55.57677855 6.01501465 52.59788513 C2.85723327 50.26501837 0.41107281 48.42349629 -0.70458984 44.56008911 C-0.92376176 41.68690688 -0.90109181 38.91418024 -0.78125 36.03515625 C-0.76993042 35.00184677 -0.75861084 33.96853729 -0.74694824 32.90391541 C-0.70236131 29.62151288 -0.60202958 26.34356918 -0.5 23.0625 C-0.45985025 20.83014146 -0.42335211 18.59771407 -0.390625 16.36523438 C-0.30268606 10.90864928 -0.16903074 5.45464315 0 0 Z " fill="#C60101" transform="translate(132,263)"/>
<path d="M0 0 C21.51108464 10.64466044 42.82324244 21.7057293 64 33 C64 40.26 64 47.52 64 55 C61.81375 56.0725 59.6275 57.145 57.375 58.25 C46.75114652 63.5262837 36.39390828 69.28871159 26 75 C21.58680494 77.42307168 17.16966847 79.83875895 12.75 82.25 C11.70779297 82.82322998 10.66558594 83.39645996 9.59179688 83.98706055 C8.62822266 84.51211182 7.66464844 85.03716309 6.671875 85.578125 C5.8169043 86.04637695 4.96193359 86.51462891 4.08105469 86.99707031 C2 88 2 88 0 88 C0 80.08 0 72.16 0 64 C12.52391408 57.3143015 25.12131527 50.97063323 38 45 C34.37263447 42.00044774 30.36686764 40.05583337 26.171875 37.98828125 C25.42286926 37.61519333 24.67386353 37.24210541 23.90216064 36.85771179 C21.51996539 35.67219166 19.13504299 34.49227882 16.75 33.3125 C15.13002496 32.50753039 13.51023117 31.70219589 11.890625 30.89648438 C7.92949292 28.92606468 3.96471904 26.96325755 0 25 C0 16.75 0 8.5 0 0 Z " fill="#FCFCFC" transform="translate(64,64)"/>
<path d="M0 0 C2.97816718 1.42432416 4.97931682 2.77903265 7.25 5.1875 C9.70026592 7.71596589 12.19832051 10.08755876 14.875 12.375 C17.8846753 14.96634205 20.71088616 17.67254783 23.5 20.5 C26.22829407 23.26560408 28.98516834 25.91287031 31.9375 28.4375 C36.89209778 32.68854489 41.42046806 37.35323186 46 42 C46.86431641 42.68006104 47.72863281 43.36012207 48.61914062 44.06079102 C51.96103802 48.1864168 51.64095777 51.30389324 51.48828125 56.45703125 C51.48120651 57.35999435 51.47413177 58.26295746 51.46684265 59.19328308 C51.43893319 62.06721088 51.37620232 64.93916472 51.3125 67.8125 C51.28741262 69.76494575 51.26460022 71.71742215 51.24414062 73.66992188 C51.18911789 78.44737102 51.10286998 83.22335126 51 88 C47.24045558 87.20208804 45.40661493 85.87230354 42.5625 83.25 C41.77101563 82.52296875 40.97953125 81.7959375 40.1640625 81.046875 C37.72692066 78.74170835 35.34197302 76.40202361 33 74 C28.486668 69.38855209 23.89368608 64.98676148 19 60.78125 C16.21723592 58.30285074 13.634164 55.6454436 11.0234375 52.98828125 C8.35346293 50.3646962 5.53121811 47.94749566 2.6640625 45.54296875 C0.58905158 43.61895628 -0.8975189 41.97008085 -1.20254517 39.0827179 C-1.18033905 38.36101913 -1.15813293 37.63932037 -1.13525391 36.89575195 C-1.11508209 36.07512772 -1.09491028 35.25450348 -1.0741272 34.40901184 C-1.04193085 33.52767075 -1.0097345 32.64632965 -0.9765625 31.73828125 C-0.95153656 30.83248825 -0.92651062 29.92669525 -0.90072632 28.99345398 C-0.81853209 26.09942164 -0.72194031 23.20607231 -0.625 20.3125 C-0.56675985 18.35093939 -0.50945658 16.38935072 -0.453125 14.42773438 C-0.31295407 9.61809651 -0.15986893 4.8090218 0 0 Z " fill="#4E8802" transform="translate(282,406)"/>
<path d="M0 0 C0.66 0 1.32 0 2 0 C2.12689295 6.4593404 2.21438968 12.91835884 2.2746582 19.37866211 C2.29978509 21.5757244 2.33389246 23.77270324 2.37719727 25.96948242 C2.43792762 29.12960405 2.46622833 32.28861957 2.48828125 35.44921875 C2.51408768 36.42960617 2.5398941 37.40999359 2.56648254 38.42008972 C2.5692994 45.28650774 2.5692994 45.28650774 -0.43676758 49.05395508 C-1.28263428 49.6961499 -2.12850098 50.33834473 -3 51 C-3.495 51.556875 -3.99 52.11375 -4.5 52.6875 C-6 54 -6 54 -8.25 54.875 C-11.3990526 56.16324879 -13.7633777 57.91602812 -16.44921875 59.9765625 C-18 61 -18 61 -20 61 C-20.433125 61.928125 -20.433125 61.928125 -20.875 62.875 C-22.29185073 65.5512736 -23.44583562 66.7620865 -26.23828125 67.9609375 C-29.76663646 68.01084351 -31.07634375 66.65717942 -33.5559082 64.27636719 C-34.0943335 63.73141602 -34.63275879 63.18646484 -35.1875 62.625 C-36.33011004 61.51759001 -37.47334679 60.41082629 -38.6171875 59.3046875 C-39.46555176 58.4708252 -39.46555176 58.4708252 -40.33105469 57.62011719 C-42.76389439 55.25845478 -45.28189559 53.00663584 -47.8125 50.75 C-48.62332031 50.02296875 -49.43414062 49.2959375 -50.26953125 48.546875 C-51.12611328 47.78117187 -51.12611328 47.78117187 -52 47 C-50.51093163 43.33835647 -48.52454864 41.5475084 -45.4375 39.125 C-44.45394531 38.34253906 -43.47039062 37.56007812 -42.45703125 36.75390625 C-41.90869629 36.31965332 -41.36036133 35.88540039 -40.79541016 35.43798828 C-38.10550134 33.28357396 -35.45999752 31.07654589 -32.80883789 28.87475586 C-24.11423062 21.65954403 -15.29876826 14.63842349 -6.19921875 7.9375 C-5.37035156 7.31875 -4.54148437 6.7 -3.6875 6.0625 C-2.96949219 5.53785156 -2.25148438 5.01320312 -1.51171875 4.47265625 C-1.01285156 3.98667969 -0.51398438 3.50070313 0 3 C0 2.01 0 1.02 0 0 Z " fill="#0159E6" transform="translate(448,180)"/>
<path d="M0 0 C10.56 0 21.12 0 32 0 C32 5.28 32 10.56 32 16 C21.44 16 10.88 16 0 16 C0 10.72 0 5.44 0 0 Z " fill="#FFFFFF" transform="translate(144,144)"/>
<path d="M0 0 C0.66 0.33 1.32 0.66 2 1 C0.71034824 2.37562854 -0.62689293 3.70766393 -2 5 C-2.66 5 -3.32 5 -4 5 C-4.0825 5.598125 -4.165 6.19625 -4.25 6.8125 C-5.21576779 9.62932273 -6.48868567 10.47799132 -9 12 C-9.66 12 -10.32 12 -11 12 C-10.34 13.32 -9.68 14.64 -9 16 C-8.67 15.01 -8.34 14.02 -8 13 C-7.34 13.33 -6.68 13.66 -6 14 C-6 14.66 -6 15.32 -6 16 C-6.66 16 -7.32 16 -8 16 C-8.33 17.98 -8.66 19.96 -9 22 C-4.545 22.99 -4.545 22.99 0 24 C-0.99 26.475 -0.99 26.475 -2 29 C-7.83905304 24.90023936 -13.37089402 20.46628472 -18 15 C-18 14.34 -18 13.68 -18 13 C-17.278125 12.773125 -16.55625 12.54625 -15.8125 12.3125 C-12.42020237 10.72942777 -10.61586592 8.67670001 -8 6 C-5.38563095 3.92703947 -2.7047732 1.95307445 0 0 Z " fill="#323540" transform="translate(438,234)"/>
<path d="M0 0 C0.66 0.33 1.32 0.66 2 1 C0.60919892 2.58775549 -0.78788404 4.17000939 -2.1875 5.75 C-2.96480469 6.63171875 -3.74210937 7.5134375 -4.54296875 8.421875 C-8.3260838 12.39143928 -11.78885584 15.213322 -17 17 C-16.34 17.33 -15.68 17.66 -15 18 C-15 18.99 -15 19.98 -15 21 C-14.01 21 -13.02 21 -12 21 C-11.54625 21.763125 -11.0925 22.52625 -10.625 23.3125 C-8.77369047 26.37428115 -7.01512521 27.20722285 -4 29 C-4 29.99 -4 30.98 -4 32 C-3.34 32 -2.68 32 -2 32 C-1.67 33.32 -1.34 34.64 -1 36 C-7.510703 30.52509066 -13.74987827 24.76776422 -20 19 C-18.46846008 15.0870483 -16.07723993 13.19176105 -12.8125 10.625 C-11.34296875 9.45517578 -11.34296875 9.45517578 -9.84375 8.26171875 C-8.9053125 7.51535156 -7.966875 6.76898438 -7 6 C-4.64685396 4.02158441 -2.32328813 2.01351638 0 0 Z " fill="#0E5DDC" transform="translate(416,208)"/>
<path d="M0 0 C0.33 0 0.66 0 1 0 C1 13.86 1 27.72 1 42 C-2.88687973 40.05656013 -5.62831213 37.80004612 -8.75 34.875 C-9.25660156 34.40707031 -9.76320313 33.93914062 -10.28515625 33.45703125 C-11.52719141 32.30873459 -12.76411494 31.15491328 -14 30 C-11.33333333 29.33333333 -8.66666667 28.66666667 -6 28 C-5.731875 28.639375 -5.46375 29.27875 -5.1875 29.9375 C-4.11332248 32.33131686 -4.11332248 32.33131686 -1 33 C-0.67 22.11 -0.34 11.22 0 0 Z " fill="#BE0407" transform="translate(281,405)"/>
<path d="M0 0 C0.99 0.33 1.98 0.66 3 1 C-7.47050682 9.92783026 -18.11178564 18.5839889 -29 27 C-31.99220268 25.63629701 -34.29026529 24.05091917 -36.75 21.875 C-37.36359375 21.33617187 -37.9771875 20.79734375 -38.609375 20.2421875 C-39.06828125 19.83226562 -39.5271875 19.42234375 -40 19 C-39.34 18.67 -38.68 18.34 -38 18 C-37.01 18.66 -36.02 19.32 -35 20 C-35 20.66 -35 21.32 -35 22 C-32.34084905 23.47158931 -32.34084905 23.47158931 -29 24 C-26.67576387 22.38726473 -24.96767838 20.95701346 -23 19 C-21.700625 17.9790625 -21.700625 17.9790625 -20.375 16.9375 C-17.99582843 15.07353873 -17.99582843 15.07353873 -16.0625 13 C-9.875 7 -9.875 7 -6 7 C-6 6.01 -6 5.02 -6 4 C-3.5625 2.375 -3.5625 2.375 -1 1 C-0.67 0.67 -0.34 0.34 0 0 Z " fill="#B6F914" transform="translate(363,425)"/>
<path d="M0 0 C0.66 0.33 1.32 0.66 2 1 C2.01981934 2.05388916 2.03963867 3.10777832 2.06005859 4.19360352 C2.13650687 8.12807889 2.22516177 12.06220323 2.31738281 15.99633789 C2.35551129 17.69450924 2.39039146 19.39275692 2.421875 21.09106445 C2.46787822 23.54145467 2.52581151 25.99132667 2.5859375 28.44140625 C2.60326431 29.56839684 2.60326431 29.56839684 2.62094116 30.71815491 C2.75125653 35.44170715 3.53837366 39.46675524 5 44 C5.34161151 45.33123644 5.67684668 46.66416288 6 48 C2.63964495 45.85078892 -0.50512139 43.82701844 -1.58688354 39.83331299 C-1.71247432 37.26737559 -1.63234565 34.79017485 -1.46484375 32.2265625 C-1.43274307 31.3028183 -1.4006424 30.3790741 -1.36756897 29.42733765 C-1.25781249 26.4907109 -1.09842763 23.55922305 -0.9375 20.625 C-0.85413269 18.62904092 -0.77401831 16.63294313 -0.69726562 14.63671875 C-0.50248808 9.75540244 -0.26319243 4.87808646 0 0 Z " fill="#8B7722" transform="translate(282,406)"/>
<path d="M0 0 C0.66 0.33 1.32 0.66 2 1 C0.6078125 2.1446875 0.6078125 2.1446875 -0.8125 3.3125 C-2.46223624 4.68151189 -4.01460042 6.01520877 -5.5 7.5625 C-8.65001838 10.58126761 -11.57176896 13 -16 13 C-16 13.66 -16 14.32 -16 15 C-17.64453125 16.62109375 -17.64453125 16.62109375 -19.8125 18.4375 C-22.7965177 20.9486009 -22.7965177 20.9486009 -25.6015625 23.65234375 C-27.49914458 25.48101922 -29.54117713 26.11734564 -32 27 C-32.66 27.33 -33.32 27.66 -34 28 C-33.6875 26.0625 -33.6875 26.0625 -33 24 C-32.01 23.67 -31.02 23.34 -30 23 C-29.67 22.01 -29.34 21.02 -29 20 C-27.5459375 19.5359375 -27.5459375 19.5359375 -26.0625 19.0625 C-22.89495953 18.31531979 -22.89495953 18.31531979 -21.625 15.875 C-21.41875 15.25625 -21.2125 14.6375 -21 14 C-20.01 14 -19.02 14 -18 14 C-18 13.01 -18 12.02 -18 11 C-16.68 11 -15.36 11 -14 11 C-12.31002677 9.35697047 -10.64783606 7.68528688 -9 6 C-6.93336824 4.58701881 -4.8239055 3.29389875 -2.671875 2.015625 C-1.02909311 1.10816518 -1.02909311 1.10816518 0 0 Z " fill="#E6983E" transform="translate(334,363)"/>
<path d="M0 0 C0.66 0.33 1.32 0.66 2 1 C-3.25812179 5.85472091 -8.69945048 10.43959028 -14.3125 14.875 C-14.91078613 15.35106689 -15.50907227 15.82713379 -16.12548828 16.31762695 C-18.96242753 18.54118471 -21.67655099 20.57214783 -25 22 C-24.38722388 19.03824877 -23.74627478 17.61941217 -22 15 C-21.34 15.33 -20.68 15.66 -20 16 C-20 15.01 -20 14.02 -20 13 C-18.68 13 -17.36 13 -16 13 C-15.34 11.68 -14.68 10.36 -14 9 C-13.01 9 -12.02 9 -11 9 C-10.67 7.68 -10.34 6.36 -10 5 C-8.9171875 4.87625 -8.9171875 4.87625 -7.8125 4.75 C-4.44686746 3.85249799 -2.58387184 2.2885722 0 0 Z " fill="#2F3B4B" transform="translate(327,191)"/>
<path d="M0 0 C0.66 0.33 1.32 0.66 2 1 C-1.22014476 5.23219026 -3.01964658 7.06319589 -8 9 C-8.34342449 10.33076989 -8.67619874 11.66431979 -9 13 C-11 14.375 -11 14.375 -14 16 C-18.85495129 19.10470617 -23.57945443 22.29244565 -28 26 C-28.66 25.67 -29.32 25.34 -30 25 C-28.54712339 23.66072279 -27.08752741 22.32873153 -25.625 21 C-24.81289062 20.2575 -24.00078125 19.515 -23.1640625 18.75 C-21 17 -21 17 -19 17 C-19 16.34 -19 15.68 -19 15 C-17.63671875 13.80859375 -17.63671875 13.80859375 -15.6875 12.4375 C-10.27135344 8.51881586 -5.14946187 4.25966515 0 0 Z " fill="#DD5F62" transform="translate(227,186)"/>
<path d="M0 0 C0.66 0.33 1.32 0.66 2 1 C-1.27251732 6.78983834 -1.27251732 6.78983834 -4.8125 7.8125 C-9.15331665 9.42966699 -10.70554666 12.17046183 -13.2890625 15.90625 C-15.97069232 19.18787918 -18.94802074 20.13171873 -23 21 C-21.6875 18.5 -21.6875 18.5 -20 16 C-19.01 16 -18.02 16 -17 16 C-16.34 14.68 -15.68 13.36 -15 12 C-14.34 12 -13.68 12 -13 12 C-13 11.34 -13 10.68 -13 10 C-11.05127123 8.3981038 -9.10722061 6.90663524 -7.0625 5.4375 C-3.38299103 2.89247678 -3.38299103 2.89247678 0 0 Z " fill="#B7F424" transform="translate(323,284)"/>
<path d="M0 0 C2 1 2 1 3 3 C-0.16158861 6.25191971 -3.26343772 9.41314919 -7 12 C-8.32 12 -9.64 12 -11 12 C-11.33 12.66 -11.66 13.32 -12 14 C-13.32 13.67 -14.64 13.34 -16 13 C-14.38050958 11.49405319 -12.75424026 9.99539332 -11.125 8.5 C-9.76761719 7.24703125 -9.76761719 7.24703125 -8.3828125 5.96875 C-6 4 -6 4 -4 4 C-4 3.34 -4 2.68 -4 2 C-2.125 0.9375 -2.125 0.9375 0 0 Z " fill="#B8F422" transform="translate(432,284)"/>
<path d="M0 0 C0.66 0.33 1.32 0.66 2 1 C-1.5509697 5.66737306 -4.97801249 8.81838149 -10.05078125 11.74609375 C-12.6252748 13.40223089 -14.54559532 15.44503089 -16.63671875 17.66015625 C-18.5297268 19.52061975 -20.7063456 20.68114872 -23 22 C-24.05182295 22.90499487 -25.09312287 23.82232721 -26.125 24.75 C-27.548125 25.86375 -27.548125 25.86375 -29 27 C-29.99 26.67 -30.98 26.34 -32 26 C-31.40574219 25.52691406 -30.81148438 25.05382812 -30.19921875 24.56640625 C-24.68542617 20.16737733 -19.21073167 15.72419009 -13.7578125 11.25 C-10.1606256 8.31518463 -6.53252459 5.42017727 -2.8984375 2.53125 C-1.1039788 1.13946318 -1.1039788 1.13946318 0 0 Z " fill="#E2F9C5" transform="translate(375,461)"/>
<path d="M0 0 C1.98 0 3.96 0 6 0 C6.07595711 6.92334988 6.12856051 13.84659263 6.16479492 20.77026367 C6.17989747 23.12642431 6.20038091 25.48255677 6.22631836 27.83862305 C6.26263656 31.22191312 6.27971167 34.60483208 6.29296875 37.98828125 C6.30845261 39.04461258 6.32393646 40.10094391 6.33988953 41.18928528 C6.34011612 42.17007553 6.34034271 43.15086578 6.34057617 44.16137695 C6.34723801 45.02519485 6.35389984 45.88901276 6.36076355 46.77900696 C5.92192162 49.48067918 5.19231674 50.40125236 3 52 C0.8125 51.6875 0.8125 51.6875 -1 51 C-0.35125916 50.59911667 0.29748169 50.19823334 0.96588135 49.78520203 C3.16396229 48.1994052 3.16396229 48.1994052 3.51898193 45.89289856 C3.52786438 45.08237534 3.53674683 44.27185211 3.54589844 43.43676758 C3.56561707 42.51603958 3.58533569 41.59531158 3.60565186 40.64668274 C3.60749481 39.16061775 3.60749481 39.16061775 3.609375 37.64453125 C3.62591125 36.62775803 3.64244751 35.6109848 3.65948486 34.56340027 C3.70810414 31.3130396 3.72936706 28.06314722 3.75 24.8125 C3.77814797 22.6100023 3.80807373 20.40752655 3.83984375 18.20507812 C3.91386646 12.80347084 3.96542723 7.401996 4 2 C2.68 1.67 1.36 1.34 0 1 C0 0.67 0 0.34 0 0 Z " fill="#233857" transform="translate(446,178)"/>
<path d="M0 0 C4.46175908 2.23087954 7.50253054 5.39828242 10.9296875 8.9296875 C12.87894563 10.87894563 14.88817882 12.66767415 17 14.4375 C17.99 15.283125 18.98 16.12875 20 17 C20 17.33 20 17.66 20 18 C18.35 18 16.7 18 15 18 C15 17.01 15 16.02 15 15 C14.38125 14.690625 13.7625 14.38125 13.125 14.0625 C11.75 13.375 10.375 12.6875 9 12 C9 12.66 9 13.32 9 14 C8.01 14 7.02 14 6 14 C6 12.68 6 11.36 6 10 C6.66 10 7.32 10 8 10 C8 9.34 8 8.68 8 8 C6.35 7.67 4.7 7.34 3 7 C2.67 5.35 2.34 3.7 2 2 C1.34 2 0.68 2 0 2 C0 1.34 0 0.68 0 0 Z " fill="#D4C6C7" transform="translate(192,366)"/>
<path d="M0 0 C0.66 0 1.32 0 2 0 C2.12689295 6.4593404 2.21438968 12.91835884 2.2746582 19.37866211 C2.29978509 21.5757244 2.33389246 23.77270324 2.37719727 25.96948242 C2.43792762 29.12960405 2.46622833 32.28861957 2.48828125 35.44921875 C2.51408768 36.42960617 2.5398941 37.40999359 2.56648254 38.42008972 C2.5692978 45.28258473 2.5692978 45.28258473 -0.41723633 49.04614258 C-1.26954834 49.69091553 -2.12186035 50.33568848 -3 51 C-3.598125 51.598125 -4.19625 52.19625 -4.8125 52.8125 C-5.204375 53.204375 -5.59625 53.59625 -6 54 C-6.66 53.67 -7.32 53.34 -8 53 C-7.525625 52.5875 -7.05125 52.175 -6.5625 51.75 C-4.84709861 50.12037478 -4.84709861 50.12037478 -4.5625 47.9375 C-4.376875 47.298125 -4.19125 46.65875 -4 46 C-2.68 45.34 -1.36 44.68 0 44 C0 29.48 0 14.96 0 0 Z " fill="#1651B0" transform="translate(448,180)"/>
<path d="M0 0 C-2.96306871 3.05566461 -6.01720161 5.97135828 -9.1875 8.8125 C-9.86167969 9.41707031 -10.53585937 10.02164062 -11.23046875 10.64453125 C-13 12 -13 12 -15 12 C-15.33 10.68 -15.66 9.36 -16 8 C-14.47005208 6.76302083 -12.94010417 5.52604167 -11.41015625 4.2890625 C-9.86733563 3.0333609 -9.86733563 3.0333609 -9 1 C-5.99083491 -0.07470182 -3.17106439 -0.08808512 0 0 Z " fill="#7FC218" transform="translate(411,432)"/>
<path d="M0 0 C1.65 0 3.3 0 5 0 C5.28875 0.804375 5.5775 1.60875 5.875 2.4375 C6.73262568 5.1326468 6.73262568 5.1326468 9 6 C9 21.18 9 36.36 9 52 C8.67 52 8.34 52 8 52 C8.00636475 50.69853027 8.01272949 49.39706055 8.01928711 48.05615234 C8.03374898 43.21388839 8.00234057 38.37280746 7.95727539 33.53076172 C7.94415937 31.43770375 7.94337966 29.34452983 7.95532227 27.25146484 C7.97035979 24.23679983 7.94061446 21.22534016 7.90234375 18.2109375 C7.91659897 17.27945892 7.93085419 16.34798035 7.94554138 15.38827515 C7.87317129 10.33387266 7.87317129 10.33387266 5.38162231 6.1038208 C3.48811731 4.47332063 3.48811731 4.47332063 1.49952698 3.14883423 C0.75726112 2.58016129 0.75726112 2.58016129 0 2 C0 1.34 0 0.68 0 0 Z " fill="#C3D7A7" transform="translate(488,312)"/>
<path d="M0 0 C0.33 0.99 0.66 1.98 1 3 C0.30132812 3.45890625 -0.39734375 3.9178125 -1.1171875 4.390625 C-2.02726562 5.00421875 -2.93734375 5.6178125 -3.875 6.25 C-4.77992188 6.85328125 -5.68484375 7.4565625 -6.6171875 8.078125 C-8.96269251 9.96990937 -9.932629 11.22728914 -11 14 C-12.32 14 -13.64 14 -15 14 C-15.33 15.32 -15.66 16.64 -16 18 C-17.65 18 -19.3 18 -21 18 C-17.57259502 14.35838221 -13.96020096 11.43231257 -9.92578125 8.484375 C-7.39463725 6.5333918 -5.22481609 4.28838226 -3 2 C-2.01 1.34 -1.02 0.68 0 0 Z " fill="#BDD4AC" transform="translate(495,364)"/>
<path d="M0 0 C0.99 0 1.98 0 3 0 C3 1.32 3 2.64 3 4 C2.01 4.33 1.02 4.66 0 5 C0 7.31 0 9.62 0 12 C-3.45201639 10.52278578 -5.64961936 8.56205999 -8.25 5.875 C-8.95640625 5.15054688 -9.6628125 4.42609375 -10.390625 3.6796875 C-10.92171875 3.12539062 -11.4528125 2.57109375 -12 2 C-11.34 1.67 -10.68 1.34 -10 1 C-9.443125 1.7425 -9.443125 1.7425 -8.875 2.5 C-6.25305607 4.59755514 -4.26157528 4.21743835 -1 4 C-0.67 2.68 -0.34 1.36 0 0 Z " fill="#3A3231" transform="translate(291,210)"/>
<path d="M0 0 C0.66 0.33 1.32 0.66 2 1 C1.52949219 1.37511719 1.05898437 1.75023437 0.57421875 2.13671875 C-3.06639484 5.12910715 -5.85453304 7.70906609 -8 12 C-6.68 12 -5.36 12 -4 12 C-3.34 14.64 -2.68 17.28 -2 20 C-3.31322788 19.02180976 -4.62556152 18.0424189 -5.9375 17.0625 C-7.03384766 16.24458984 -7.03384766 16.24458984 -8.15234375 15.41015625 C-10.95748988 13.26923077 -10.95748988 13.26923077 -11.375 10.625 C-11.25125 9.75875 -11.1275 8.8925 -11 8 C-8.875 6.5 -8.875 6.5 -6 5 C-3.93613532 3.40014237 -1.9804691 1.70412457 0 0 Z " fill="#9680B8" transform="translate(248,256)"/>
<path d="M0 0 C0.99 0 1.98 0 3 0 C3.33 0.99 3.66 1.98 4 3 C4.66 2.67 5.32 2.34 6 2 C6.99 1.67 7.98 1.34 9 1 C9.66 1.33 10.32 1.66 11 2 C6.375 6 6.375 6 3 6 C2.67 6.99 2.34 7.98 2 9 C-1.67420866 8.69381595 -2.78135513 8.24228216 -5.3125 5.4375 C-5.869375 4.633125 -6.42625 3.82875 -7 3 C-5.68 2.67 -4.36 2.34 -3 2 C-3 3.32 -3 4.64 -3 6 C-2.01 5.34 -1.02 4.68 0 4 C0 2.68 0 1.36 0 0 Z " fill="#6FA1D1" transform="translate(287,304)"/>
<path d="M0 0 C0.33 0 0.66 0 1 0 C1.14833408 6.05050913 1.2572103 12.09996018 1.32958984 18.15185547 C1.35976106 20.21031122 1.40070441 22.26863843 1.45263672 24.32666016 C1.52543765 27.28580408 1.55945225 30.24324896 1.5859375 33.203125 C1.61690521 34.12305237 1.64787292 35.04297974 1.67977905 35.99078369 C1.68307932 42.25791383 1.68307932 42.25791383 -0.37567139 44.49450684 C-2.03662109 45.61230469 -2.03662109 45.61230469 -5 47 C-5 45.68 -5 44.36 -5 43 C-2.525 42.505 -2.525 42.505 0 42 C0 28.14 0 14.28 0 0 Z " fill="#7CB825" transform="translate(495,321)"/>
<path d="M0 0 C1.65 0.33 3.3 0.66 5 1 C1.5804908 4.5131089 -1.94311095 7.71039987 -5.75 10.8125 C-6.71421875 11.60269531 -7.6784375 12.39289063 -8.671875 13.20703125 C-11 15 -11 15 -12 15 C-12.1875 12.625 -12.1875 12.625 -12 10 C-9 8 -9 8 -5 8 C-4.67 6.35 -4.34 4.7 -4 3 C-2.68 3.33 -1.36 3.66 0 4 C0 2.68 0 1.36 0 0 Z " fill="#2D3C4A" transform="translate(359,162)"/>
<path d="M0 0 C2.64 0 5.28 0 8 0 C8.33 0.99 8.66 1.98 9 3 C9.99 3 10.98 3 12 3 C12 3.66 12 4.32 12 5 C12.99 5.33 13.98 5.66 15 6 C15 6.99 15 7.98 15 9 C16.32 8.67 17.64 8.34 19 8 C19 9.98 19 11.96 19 14 C15.40738344 11.00260985 11.97536484 8.0165749 8.8125 4.5625 C7.884375 3.716875 6.95625 2.87125 6 2 C3.6977886 2.31134669 2.07603454 2.96198273 0 4 C0 2.68 0 1.36 0 0 Z " fill="#2D3B4E" transform="translate(395,134)"/>
<path d="M0 0 C0.66 0.99 1.32 1.98 2 3 C0.06695667 4.65132849 -1.87104737 6.29611041 -3.8125 7.9375 C-4.63331055 8.64036133 -4.63331055 8.64036133 -5.47070312 9.35742188 C-7.97214225 11.46469483 -9.86702907 12.95567636 -13 14 C-13 13.34 -13 12.68 -13 12 C-12.34 12 -11.68 12 -11 12 C-10.95875 11.236875 -10.9175 10.47375 -10.875 9.6875 C-10 7 -10 7 -7.0625 5.1875 C-4 4 -4 4 -2 4 C-2 3.01 -2 2.02 -2 1 C-1.34 0.67 -0.68 0.34 0 0 Z " fill="#4B3030" transform="translate(150,245)"/>
<path d="M0 0 C0.66 0.33 1.32 0.66 2 1 C1.29875 1.680625 0.5975 2.36125 -0.125 3.0625 C-3.27934337 6.20780513 -6.13934304 9.5888386 -9 13 C-10.65 12.67 -12.3 12.34 -14 12 C-14 11.34 -14 10.68 -14 10 C-12.42578125 8.59765625 -12.42578125 8.59765625 -10.3125 7.0625 C-9.58546875 6.53398437 -8.8584375 6.00546875 -8.109375 5.4609375 C-5.7999158 3.86142317 -3.43428421 2.40155757 -1 1 C-0.67 0.67 -0.34 0.34 0 0 Z " fill="#6B9FEF" transform="translate(270,240)"/>
<path d="M0 0 C1.8125 0 1.8125 0 4 1 C5.8456968 2.89828075 7.38401815 4.89024592 9 7 C7.824375 6.9690625 7.824375 6.9690625 6.625 6.9375 C4.01885039 6.81315937 4.01885039 6.81315937 2 8 C1.67 6.68 1.34 5.36 1 4 C0.608125 4.495 0.21625 4.99 -0.1875 5.5 C-2.55091715 7.45593143 -4.01435003 7.24207973 -7 7 C-4.66666667 4.66666667 -2.33333333 2.33333333 0 0 Z " fill="#6697E1" transform="translate(398,135)"/>
<path d="M0 0 C0.99 0.33 1.98 0.66 3 1 C3.38218767 2.65614657 3.71395102 4.32457024 4 6 C3.67 6.33 3.34 6.66 3 7 C2.8415735 9.0708472 2.74875578 11.14678029 2.68359375 13.22265625 C2.64169922 14.48271484 2.59980469 15.74277344 2.55664062 17.04101562 C2.51682404 18.38150736 2.47711186 19.7220022 2.4375 21.0625 C2.39431958 22.40691523 2.35070544 23.7513166 2.30664062 25.09570312 C2.20014642 28.3970234 2.0981354 31.69842236 2 35 C1.67 35 1.34 35 1 35 C0.505 17.675 0.505 17.675 0 0 Z " fill="#57830A" transform="translate(283,407)"/>
<path d="M0 0 C1.98 0 3.96 0 6 0 C6.33 0.99 6.66 1.98 7 3 C6.67 3.66 6.34 4.32 6 5 C7.918125 4.938125 7.918125 4.938125 9.875 4.875 C12.0546875 4.8046875 12.0546875 4.8046875 14 5 C14.66 5.66 15.32 6.32 16 7 C15.01 8.485 15.01 8.485 14 10 C9.89542181 9.47616397 7.78489488 8.34834816 4.75 5.5625 C4.06421875 4.94503906 3.3784375 4.32757813 2.671875 3.69140625 C1 2 1 2 0 0 Z " fill="#6AA6C6" transform="translate(380,306)"/>
<path d="M0 0 C0.33 0 0.66 0 1 0 C1 13.86 1 27.72 1 42 C-0.32 41.34 -1.64 40.68 -3 40 C-2.67 39.34 -2.34 38.68 -2 38 C-1.34 38 -0.68 38 0 38 C0 25.46 0 12.92 0 0 Z " fill="#AB1003" transform="translate(281,405)"/>
<path d="M0 0 C0.66 0.33 1.32 0.66 2 1 C0.71034824 2.37562854 -0.62689293 3.70766393 -2 5 C-2.66 5 -3.32 5 -4 5 C-4.05285156 5.58136719 -4.10570312 6.16273438 -4.16015625 6.76171875 C-5.39464315 10.05176987 -7.48915362 10.99134977 -10.4375 12.8125 C-11.42621094 13.43769531 -12.41492188 14.06289062 -13.43359375 14.70703125 C-14.28050781 15.13371094 -15.12742187 15.56039062 -16 16 C-16.66 15.67 -17.32 15.34 -18 15 C-18 14.34 -18 13.68 -18 13 C-17.278125 12.773125 -16.55625 12.54625 -15.8125 12.3125 C-12.42020237 10.72942777 -10.61586592 8.67670001 -8 6 C-5.38563095 3.92703947 -2.7047732 1.95307445 0 0 Z " fill="#223D6E" transform="translate(438,234)"/>
<path d="M0 0 C0.99 0.33 1.98 0.66 3 1 C-0.16952847 4.26008643 -3.39937989 7.22237877 -7 10 C-8.0625 8.1875 -8.0625 8.1875 -9 6 C-8.67 5.01 -8.34 4.02 -8 3 C-4.71303767 2.20046862 -3.28976808 1.90341064 0 3 C0 2.01 0 1.02 0 0 Z " fill="#443230" transform="translate(192,211)"/>
<path d="M0 0 C0.33 0.66 0.66 1.32 1 2 C0.195625 2.763125 -0.60875 3.52625 -1.4375 4.3125 C-4.16799024 6.79430898 -4.16799024 6.79430898 -5 10 C-8.375 11.75 -8.375 11.75 -12 13 C-12.99 12.67 -13.98 12.34 -15 12 C-10.05 8.04 -5.1 4.08 0 0 Z " fill="#6793DB" transform="translate(316,202)"/>
<path d="M0 0 C0.99 0.33 1.98 0.66 3 1 C3 1.66 3 2.32 3 3 C3.5775 3.28875 4.155 3.5775 4.75 3.875 C5.86375 4.431875 5.86375 4.431875 7 5 C8.0828125 5.4640625 8.0828125 5.4640625 9.1875 5.9375 C11 7 11 7 12 10 C12.61875 10.268125 13.2375 10.53625 13.875 10.8125 C16.92295549 12.51576924 17.64076848 14.8737675 19 18 C14.86360664 16.40907948 11.76786752 13.39525082 9 10 C9 9.34 9 8.68 9 8 C8.13375 7.566875 8.13375 7.566875 7.25 7.125 C6.5075 6.75375 5.765 6.3825 5 6 C4.278125 5.71125 3.55625 5.4225 2.8125 5.125 C1 4 1 4 0.25 1.875 C0.1675 1.25625 0.085 0.6375 0 0 Z " fill="#8C1419" transform="translate(161,336)"/>
<path d="M0 0 C0.66 0.33 1.32 0.66 2 1 C0.37660195 2.70884005 -1.29319053 4.37446717 -3 6 C-3.66 6 -4.32 6 -5 6 C-5.2475 6.804375 -5.495 7.60875 -5.75 8.4375 C-7 11 -7 11 -8.875 11.8125 C-10.90971782 11.99203393 -12.95737692 12 -15 12 C-15.33 10.68 -15.66 9.36 -16 8 C-14.02 8.66 -12.04 9.32 -10 10 C-9.79375 9.236875 -9.5875 8.47375 -9.375 7.6875 C-7.56929729 4.15817198 -5.56231762 3.55851396 -2 2 C-1.34 1.34 -0.68 0.68 0 0 Z " fill="#A4E541" transform="translate(404,306)"/>
<path d="M0 0 C10.24714829 8.57414449 10.24714829 8.57414449 14 13 C14 13.66 14 14.32 14 15 C12 15 12 15 9.9375 13.1875 C8 11 8 11 7 8 C5.12612784 7.19787372 5.12612784 7.19787372 2.9375 6.8125 C2.20402344 6.65394531 1.47054688 6.49539062 0.71484375 6.33203125 C0.14894531 6.22246094 -0.41695313 6.11289063 -1 6 C-0.67 4.02 -0.34 2.04 0 0 Z " fill="#E0636A" transform="translate(276,209)"/>
<path d="M0 0 C3.26547675 2.05041563 5.85464305 3.85109776 8.5625 6.625 C11.00413003 9.00402413 12.7841769 9.98931274 16 11 C16 11.99 16 12.98 16 14 C17.32 14.66 18.64 15.32 20 16 C20 16.99 20 17.98 20 19 C19.566875 18.525625 19.13375 18.05125 18.6875 17.5625 C16.97690387 15.76313043 16.97690387 15.76313043 14 15 C14 14.34 14 13.68 14 13 C13.34 13 12.68 13 12 13 C12 12.34 12 11.68 12 11 C11.13375 10.62875 11.13375 10.62875 10.25 10.25 C7.70120619 8.83400344 6.05276785 7.05276785 4 5 C3.01 4.67 2.02 4.34 1 4 C0.3125 1.9375 0.3125 1.9375 0 0 Z " fill="#CF8028" transform="translate(315,341)"/>
<path d="M0 0 C0.66 0.33 1.32 0.66 2 1 C-1.75 4 -1.75 4 -4 4 C-4.2475 4.639375 -4.495 5.27875 -4.75 5.9375 C-6 8 -6 8 -8.0625 8.5625 C-9.0215625 8.7790625 -9.0215625 8.7790625 -10 9 C-10.33 9.99 -10.66 10.98 -11 12 C-13.5625 13.1875 -13.5625 13.1875 -16 14 C-16 12.68 -16 11.36 -16 10 C-14.5459375 9.319375 -14.5459375 9.319375 -13.0625 8.625 C-9.92920418 7.34213779 -9.92920418 7.34213779 -9 5 C-7.00390625 3.67578125 -7.00390625 3.67578125 -4.5625 2.3125 C-3.75941406 1.85488281 -2.95632813 1.39726562 -2.12890625 0.92578125 C-1.42636719 0.62027344 -0.72382813 0.31476563 0 0 Z " fill="#E4A33E" transform="translate(298,392)"/>
<path d="M0 0 C5.16380263 1.45351482 7.81470104 4.61844897 11.25 8.5 C12.06210937 9.39138672 12.06210937 9.39138672 12.890625 10.30078125 C16.83407738 14.66815476 16.83407738 14.66815476 18 17 C14.79452042 15.56975239 12.4645554 13.79566927 9.875 11.4375 C7.13961955 8.92320784 7.13961955 8.92320784 4 7 C4 6.01 4 5.02 4 4 C3.34 4 2.68 4 2 4 C2 3.34 2 2.68 2 2 C1.34 2 0.68 2 0 2 C0 1.34 0 0.68 0 0 Z " fill="#D1772E" transform="translate(297,324)"/>
<path d="M0 0 C-1 2 -2 4 -3 6 C-1.35 6 0.3 6 2 6 C2 6.99 2 7.98 2 9 C2.66 9.33 3.32 9.66 4 10 C3.67 10.99 3.34 11.98 3 13 C1.37133456 11.56665422 -0.25280994 10.12817021 -1.875 8.6875 C-2.77992188 7.88699219 -3.68484375 7.08648437 -4.6171875 6.26171875 C-7 4 -7 4 -9 1 C-7.68 1 -6.36 1 -5 1 C-5 1.66 -5 2.32 -5 3 C-4.319375 2.2575 -4.319375 2.2575 -3.625 1.5 C-2 0 -2 0 0 0 Z " fill="#7B92DC" transform="translate(272,290)"/>
<path d="M0 0 C4.30178403 0.477976 6.09840957 2.96651909 9 6 C11.02338461 7.80914388 13.07487811 9.58189907 15.1328125 11.3515625 C16.82403463 12.84464982 18.42498825 14.38585753 20 16 C19.67 16.99 19.34 17.98 19 19 C12.66666667 12.66666667 6.33333333 6.33333333 0 0 Z " fill="#B6F220" transform="translate(291,413)"/>
<path d="M0 0 C4.24822374 0.47202486 6.19989709 2.96655518 9 6 C5.7 6 2.4 6 -1 6 C-1 2 -1 2 0 0 Z " fill="#4B2D2B" transform="translate(178,354)"/>
<path d="M0 0 C5.08335725 0.15404113 7.35754718 3.02068432 10.64453125 6.50390625 C11.09183594 6.99761719 11.53914063 7.49132812 12 8 C8.25 10 8.25 10 6 10 C5.01 7.69 4.02 5.38 3 3 C1.35 3 -0.3 3 -2 3 C-1.34 2.01 -0.68 1.02 0 0 Z " fill="#B8EB22" transform="translate(444,274)"/>
<path d="M0 0 C0.99 0.33 1.98 0.66 3 1 C2.67 1.99 2.34 2.98 2 4 C1.91621372 6.2838517 1.89270085 8.570101 1.90234375 10.85546875 C1.9037587 11.51710526 1.90517365 12.17874176 1.90663147 12.86042786 C1.91222004 14.96949828 1.92477035 17.07846177 1.9375 19.1875 C1.94251648 20.61913909 1.94707913 22.05077985 1.95117188 23.48242188 C1.9621857 26.98831588 1.97944245 30.4941475 2 34 C1.01 34.495 1.01 34.495 0 35 C0 23.45 0 11.9 0 0 Z " fill="#75BE11" transform="translate(333,454)"/>
<path d="M0 0 C0.99 0.33 1.98 0.66 3 1 C0.90041007 2.8180472 -1.20428727 4.62950034 -3.3125 6.4375 C-4.20485352 7.2119043 -4.20485352 7.2119043 -5.11523438 8.00195312 C-5.98051758 8.74155273 -5.98051758 8.74155273 -6.86328125 9.49609375 C-7.39219971 9.95169678 -7.92111816 10.4072998 -8.46606445 10.87670898 C-10 12 -10 12 -13 13 C-11.71480435 10.13302508 -10.42870746 8.02392288 -8 6 C-7.34 6 -6.68 6 -6 6 C-6 5.34 -6 4.68 -6 4 C-4.68 3.67 -3.36 3.34 -2 3 C-2 2.34 -2 1.68 -2 1 C-1.34 0.67 -0.68 0.34 0 0 Z " fill="#B8F911" transform="translate(461,345)"/>
<path d="M0 0 C0.66 0.33 1.32 0.66 2 1 C1.071875 1.763125 0.14375 2.52625 -0.8125 3.3125 C-2.46201948 4.67814869 -3.98670264 5.98554635 -5.4375 7.5625 C-7.97655028 9.89842626 -10.98015134 11.34762998 -14 13 C-12.66031236 8.51661353 -11.07540937 7.02198793 -7 4.8125 C-3.24139743 2.75489319 -3.24139743 2.75489319 0 0 Z " fill="#E1D834" transform="translate(334,363)"/>
<path d="M0 0 C0.66 0.33 1.32 0.66 2 1 C1.75 2.875 1.75 2.875 1 5 C-0.625 6 -0.625 6 -3 7 C-4.21231908 7.72252053 -5.42039559 8.45218939 -6.625 9.1875 C-7.73875 9.785625 -8.8525 10.38375 -10 11 C-10.66 10.67 -11.32 10.34 -12 10 C-8.04 6.7 -4.08 3.4 0 0 Z " fill="#E8FAD3" transform="translate(422,423)"/>
<path d="M0 0 C0.33 0.99 0.66 1.98 1 3 C0.01 3.33 -0.98 3.66 -2 4 C-2 4.66 -2 5.32 -2 6 C-2.99 6 -3.98 6 -5 6 C-5.20625 6.598125 -5.4125 7.19625 -5.625 7.8125 C-7.53549209 10.85191923 -9.71404225 11.69930839 -13 13 C-13.66 12.67 -14.32 12.34 -15 12 C-10.05 8.04 -5.1 4.08 0 0 Z " fill="#6995E2" transform="translate(375,154)"/>
<path d="M0 0 C0 0.99 0 1.98 0 3 C-1.37806594 3.97472957 -2.76639409 4.93823469 -4.203125 5.82421875 C-7.83802938 8.20271053 -12.03278939 11.06557878 -14 15 C-14.99 14.67 -15.98 14.34 -17 14 C-15.54782324 12.49403892 -14.08807139 10.99537896 -12.625 9.5 C-11.81289063 8.6646875 -11.00078125 7.829375 -10.1640625 6.96875 C-8 5 -8 5 -6 5 C-6 4.34 -6 3.68 -6 3 C-4.02 2.01 -2.04 1.02 0 0 Z " fill="#CCF217" transform="translate(324,373)"/>
<path d="M0 0 C0.66 0.33 1.32 0.66 2 1 C1.34 1.70125 0.68 2.4025 0 3.125 C-2.30233203 6.43460229 -2.36630156 8.06225823 -2 12 C-4.475 11.01 -4.475 11.01 -7 10 C-5.81438515 3.5638051 -5.81438515 3.5638051 -2.5625 1.3125 C-1.716875 0.879375 -0.87125 0.44625 0 0 Z " fill="#C1E72C" transform="translate(295,307)"/>
<path d="M0 0 C4.85967024 2.50346649 8.27856704 6.08552441 12 10 C11.01 10.33 10.02 10.66 9 11 C9 10.34 9 9.68 9 9 C7.35 9.66 5.7 10.32 4 11 C4.33 9.02 4.66 7.04 5 5 C3.68 4.67 2.36 4.34 1 4 C0.67 2.68 0.34 1.36 0 0 Z " fill="#BBED1B" transform="translate(460,287)"/>
<path d="M0 0 C0.33 0.99 0.66 1.98 1 3 C3.10584438 3.80563638 3.10584438 3.80563638 5.5625 4.1875 C6.38878906 4.34605469 7.21507812 4.50460937 8.06640625 4.66796875 C9.02353516 4.83232422 9.02353516 4.83232422 10 5 C9.34 6.65 8.68 8.3 8 10 C6.70391053 9.06862408 5.41328368 8.1296434 4.125 7.1875 C3.40570313 6.66542969 2.68640625 6.14335937 1.9453125 5.60546875 C0 4 0 4 -2 1 C-1.34 0.67 -0.68 0.34 0 0 Z " fill="#2F3743" transform="translate(428,253)"/>
<path d="M0 0 C1.27609323 0.90933009 2.54565553 1.82782853 3.8125 2.75 C4.87404297 3.51570312 4.87404297 3.51570312 5.95703125 4.296875 C8.07342379 6.06120989 9.59441511 7.62778363 11 10 C10.67 10.99 10.34 11.98 10 13 C6.22727273 10.48484848 6.22727273 10.48484848 5.0625 8 C3.61644804 5.27801984 1.67816442 4.40956022 -1 3 C-0.67 2.01 -0.34 1.02 0 0 Z " fill="#6292E4" transform="translate(438,171)"/>
<path d="M0 0 C0.99 0.33 1.98 0.66 3 1 C3.1875 3.375 3.1875 3.375 3 6 C2.01 6.66 1.02 7.32 0 8 C-1.98 5.69 -3.96 3.38 -6 1 C-4.68 1.33 -3.36 1.66 -2 2 C-1.34 1.34 -0.68 0.68 0 0 Z " fill="#598812" transform="translate(315,472)"/>
<path d="M0 0 C3.21043882 1.38188453 5.04936365 2.92421903 7.25 5.625 C8.03117187 6.57246094 8.03117187 6.57246094 8.828125 7.5390625 C9.40820312 8.26222656 9.40820312 8.26222656 10 9 C4.25 8.125 4.25 8.125 2 7 C0.42451317 4.37418862 0 3.12900213 0 0 Z " fill="#EB606E" transform="translate(272,301)"/>
<path d="M0 0 C0.66 0.33 1.32 0.66 2 1 C-1.21103118 6.68105516 -1.21103118 6.68105516 -4.9375 8.1875 C-5.948125 8.455625 -6.95875 8.72375 -8 9 C-9.69207001 9.9563874 -11.36816893 10.94410931 -13 12 C-13 11.34 -13 10.68 -13 10 C-11.05127123 8.3981038 -9.10722061 6.90663524 -7.0625 5.4375 C-3.38299103 2.89247678 -3.38299103 2.89247678 0 0 Z " fill="#ACEA3A" transform="translate(323,284)"/>
<path d="M0 0 C0.25 5.625 0.25 5.625 -2 9 C-2.66 9 -3.32 9 -4 9 C-4 8.01 -4 7.02 -4 6 C-4.99 5.67 -5.98 5.34 -7 5 C-2.25 0 -2.25 0 0 0 Z " fill="#B7F321" transform="translate(442,277)"/>
<path d="M0 0 C-6.435 4.95 -6.435 4.95 -13 10 C-13.33 9.01 -13.66 8.02 -14 7 C-12.6875 5.5 -12.6875 5.5 -11 4 C-10.01 4 -9.02 4 -8 4 C-7.67 3.01 -7.34 2.02 -7 1 C-4.05697101 -0.96201933 -3.48011144 -1.16003715 0 0 Z " fill="#2E3F56" transform="translate(395,139)"/>
<path d="M0 0 C2.475 0.99 2.475 0.99 5 2 C5 2.66 5 3.32 5 4 C6.98 4.66 8.96 5.32 11 6 C11.928125 5.01 11.928125 5.01 12.875 4 C15 2 15 2 17 2 C15.60667426 5.36720387 14.0210714 6.9859524 11 9 C8.03469503 7.64199529 5.70868729 6.07571737 3.25 3.9375 C2.63640625 3.41027344 2.0228125 2.88304687 1.390625 2.33984375 C0.93171875 1.89769531 0.4728125 1.45554687 0 1 C0 0.67 0 0.34 0 0 Z " fill="#B6F320" transform="translate(323,443)"/>
<path d="M0 0 C4.5009071 1.4145708 6.77201886 3.61830547 10 7 C12.29958994 9.04034598 14.64448698 11.02462741 17 13 C16.34 13.66 15.68 14.32 15 15 C14.41992188 14.40832031 13.83984375 13.81664062 13.2421875 13.20703125 C8.02298552 7.90515425 8.02298552 7.90515425 2.4375 3 C1.633125 2.34 0.82875 1.68 0 1 C0 0.67 0 0.34 0 0 Z " fill="#B11B22" transform="translate(241,410)"/>
<path d="M0 0 C0 2.25 0 2.25 -1 5 C-3.48947194 6.76178014 -6.0894 8.08336933 -9 9 C-9.66 8.67 -10.32 8.34 -11 8 C-9.54712339 6.66072279 -8.08752741 5.32873153 -6.625 4 C-5.81289062 3.2575 -5.00078125 2.515 -4.1640625 1.75 C-2 0 -2 0 0 0 Z " fill="#E4615F" transform="translate(165,238)"/>
<path d="M0 0 C0.66 0.33 1.32 0.66 2 1 C0.1875 3 0.1875 3 -2 5 C-2.99 5 -3.98 5 -5 5 C-5 5.66 -5 6.32 -5 7 C-6.6796875 8.69140625 -6.6796875 8.69140625 -8.875 10.5625 C-9.59429687 11.18253906 -10.31359375 11.80257812 -11.0546875 12.44140625 C-13 14 -13 14 -15 15 C-14.34 13.35 -13.68 11.7 -13 10 C-12.01 10 -11.02 10 -10 10 C-10 8.68 -10 7.36 -10 6 C-8.68 6 -7.36 6 -6 6 C-6 5.34 -6 4.68 -6 4 C-4.36368108 2.95107762 -2.69514137 1.95093297 -1 1 C-0.67 0.67 -0.34 0.34 0 0 Z " fill="#BE6D89" transform="translate(281,229)"/>
<path d="M0 0 C4.66666667 4 9.33333333 8 14 12 C13.01 12.66 12.02 13.32 11 14 C10.278125 13.113125 9.55625 12.22625 8.8125 11.3125 C7.03556807 9.16600673 5.25459543 7.27153645 3.25 5.3125 C1 3 1 3 0 0 Z " fill="#F0F8DE" transform="translate(280,447)"/>
<path d="M0 0 C1.093125 0.185625 2.18625 0.37125 3.3125 0.5625 C6.93624133 1.2578068 6.93624133 1.2578068 10 0 C10.6875 1.75 10.6875 1.75 11 4 C9.51953125 6.140625 9.51953125 6.140625 8 8 C6.66372225 6.85760183 5.33104612 5.71098945 4 4.5625 C3.2575 3.92441406 2.515 3.28632813 1.75 2.62890625 C1.1725 2.09136719 0.595 1.55382812 0 1 C0 0.67 0 0.34 0 0 Z " fill="#4A312F" transform="translate(243,178)"/>
<path d="M0 0 C1.1055189 0.93590504 2.20935453 1.87379858 3.3125 2.8125 C3.92738281 3.33457031 4.54226563 3.85664063 5.17578125 4.39453125 C6.84469411 5.86331751 8.42796259 7.42796259 10 9 C6.7 8.34 3.4 7.68 0 7 C0 4.66666667 0 2.33333333 0 0 Z " fill="#588F02" transform="translate(286,409)"/>
<path d="M0 0 C1.65 0 3.3 0 5 0 C5 0.66 5 1.32 5 2 C7.475 2.99 7.475 2.99 10 4 C10 5.65 10 7.3 10 9 C8.70391053 8.06862408 7.41328368 7.1296434 6.125 6.1875 C5.40570313 5.66542969 4.68640625 5.14335937 3.9453125 4.60546875 C2 3 2 3 0 0 Z " fill="#70A7BF" transform="translate(342,271)"/>
<path d="M0 0 C3.25047681 -0.36116409 4.58761061 -0.30929204 7.25 1.6875 C9.15182706 4.20062862 9.65544802 5.89903219 10 9 C5.82117329 6.43571997 2.87494471 3.98069267 0 0 Z " fill="#563030" transform="translate(269,202)"/>
<path d="M0 0 C0 3 0 3 -1 5 C-1.66 5 -2.32 5 -3 5 C-3 5.66 -3 6.32 -3 7 C-6.2491277 9.3208055 -9.05879291 10.43697042 -13 11 C-9.0299782 6.78185183 -4.69159716 3.38772897 0 0 Z " fill="#0E5CD8" transform="translate(439,190)"/>
<path d="M0 0 C5.75 0.75 5.75 0.75 8 3 C8 3.99 8 4.98 8 6 C8.66 6 9.32 6 10 6 C10 6.66 10 7.32 10 8 C6.40094092 7.44449305 5.00090201 6.25112752 2.75 3.4375 C2.22921875 2.79683594 1.7084375 2.15617187 1.171875 1.49609375 C0.78515625 1.00238281 0.3984375 0.50867188 0 0 Z " fill="#588716" transform="translate(323,486)"/>
<path d="M0 0 C1.12894876 0.93274109 2.25300876 1.87140122 3.375 2.8125 C4.00148437 3.33457031 4.62796875 3.85664063 5.2734375 4.39453125 C7 6 7 6 9 9 C8.01 9 7.02 9 6 9 C6 8.34 6 7.68 6 7 C5.34 7 4.68 7 4 7 C3.34 6.34 2.68 5.68 2 5 C-0.10820797 5.3185177 -0.10820797 5.3185177 -2 6 C-2 4.68 -2 3.36 -2 2 C-1.34 2 -0.68 2 0 2 C0 1.34 0 0.68 0 0 Z " fill="#FEEBE8" transform="translate(236,406)"/>
<path d="M0 0 C0.66 0.33 1.32 0.66 2 1 C-0.13386823 5.26773647 -1.64322581 6.32431762 -6 8 C-7.34410262 10.01735205 -7.34410262 10.01735205 -8 12 C-8.66 11.67 -9.32 11.34 -10 11 C-8.55218207 7.55571735 -6.72305391 5.63869038 -3.875 3.25 C-3.15054687 2.63640625 -2.42609375 2.0228125 -1.6796875 1.390625 C-0.84824219 0.70226562 -0.84824219 0.70226562 0 0 Z " fill="#7EC701" transform="translate(415,385)"/>
<path d="M0 0 C-3.17320782 3.53586014 -5.16743695 5.58578031 -10 6 C-9.67 4.35 -9.34 2.7 -9 1 C-5.92677456 0.08941469 -3.19902639 -0.08886184 0 0 Z " fill="#79C00E" transform="translate(411,432)"/>
<path d="M0 0 C3.80635497 3.20760251 7.54563567 6.40746109 11 10 C9.35 9.67 7.7 9.34 6 9 C5.67 8.01 5.34 7.02 5 6 C1.99152582 4.77479736 1.99152582 4.77479736 -1 4 C-0.67 2.68 -0.34 1.36 0 0 Z " fill="#FDE6E4" transform="translate(212,384)"/>
<path d="M0 0 C1.32 0.33 2.64 0.66 4 1 C-1.445 5.455 -1.445 5.455 -7 10 C-8 6 -8 6 -8 4 C-5.525 4.495 -5.525 4.495 -3 5 C-3 4.34 -3 3.68 -3 3 C-2.01 3 -1.02 3 0 3 C0 2.01 0 1.02 0 0 Z " fill="#6AA5C2" transform="translate(319,284)"/>
<path d="M0 0 C4.63720719 3.27530896 8.68542782 6.30435607 12 11 C10.35 11 8.7 11 7 11 C7 9.68 7 8.36 7 7 C6.21625 6.773125 5.4325 6.54625 4.625 6.3125 C2 5 2 5 0.6875 2.375 C0.460625 1.59125 0.23375 0.8075 0 0 Z " fill="#6996D9" transform="translate(426,255)"/>
<path d="M0 0 C0.66 0.33 1.32 0.66 2 1 C-1.3 3.97 -4.6 6.94 -8 10 C-8.33 8.68 -8.66 7.36 -9 6 C-7.75 4.25 -7.75 4.25 -6 3 C-5.01 3 -4.02 3 -3 3 C-3 2.34 -3 1.68 -3 1 C-2.01 0.67 -1.02 0.34 0 0 Z " fill="#4F302A" transform="translate(205,202)"/>
<path d="M0 0 C1.32 1.32 2.64 2.64 4 4 C3.443125 3.731875 2.88625 3.46375 2.3125 3.1875 C1.1678125 3.0946875 1.1678125 3.0946875 0 3 C-0.825 3.825 -1.65 4.65 -2.5 5.5 C-3.325 6.325 -4.15 7.15 -5 8 C-6.32 7.67 -7.64 7.34 -9 7 C-6.03 4.69 -3.06 2.38 0 0 Z " fill="#E46167" transform="translate(240,176)"/>
<path d="M0 0 C1.32 0.33 2.64 0.66 4 1 C-1.445 4.96 -1.445 4.96 -7 9 C-7.33 8.34 -7.66 7.68 -8 7 C-7.34 7 -6.68 7 -6 7 C-6 5.68 -6 4.36 -6 3 C-4.02 2.67 -2.04 2.34 0 2 C0 1.34 0 0.68 0 0 Z " fill="#552F2D" transform="translate(225,185)"/>
<path d="M0 0 C3.78611227 0.54087318 5.55400767 2.11722332 8 5 C8 5.66 8 6.32 8 7 C9.32 7.33 10.64 7.66 12 8 C12 8.99 12 9.98 12 11 C8.57472113 9.52651292 6.35044942 7.59092154 3.75 4.9375 C3.04359375 4.22464844 2.3371875 3.51179687 1.609375 2.77734375 C0 1 0 1 0 0 Z " fill="#563132" transform="translate(279,211)"/>
<path d="M0 0 C0.33 0.99 0.66 1.98 1 3 C-1.05233685 5.2477975 -2.00667261 6.0022242 -5 7 C-5.33 7.66 -5.66 8.32 -6 9 C-7.32 8.67 -8.64 8.34 -10 8 C-9.01 7.67 -8.02 7.34 -7 7 C-7 6.34 -7 5.68 -7 5 C-5.46875 3.7109375 -5.46875 3.7109375 -3.5 2.375 C-2.8503125 1.92898437 -2.200625 1.48296875 -1.53125 1.0234375 C-0.77328125 0.51683594 -0.77328125 0.51683594 0 0 Z " fill="#6494D9" transform="translate(343,180)"/>
<path d="M0 0 C0.721875 0.103125 1.44375 0.20625 2.1875 0.3125 C-1.24611902 3.94809661 -4.6098607 6.67363346 -8.8125 9.3125 C-8.26122218 4.35099964 -4.99006199 0.55445133 0 0 Z " fill="#B3F815" transform="translate(381.8125,410.6875)"/>
<path d="M0 0 C2.5 1.8125 2.5 1.8125 5 4 C5 4.99 5 5.98 5 7 C2 9.1875 2 9.1875 -1 11 C-0.9278125 10.37351562 -0.855625 9.74703125 -0.78125 9.1015625 C-0.6884375 8.28429687 -0.595625 7.46703125 -0.5 6.625 C-0.4071875 5.81289063 -0.314375 5.00078125 -0.21875 4.1640625 C0.03352351 2.03087175 0.03352351 2.03087175 0 0 Z " fill="#E3743F" transform="translate(331,356)"/>
<path d="M0 0 C3.36720387 1.39332574 4.9859524 2.9789286 7 6 C6.01 6 5.02 6 4 6 C4 5.34 4 4.68 4 4 C2.35 4.66 0.7 5.32 -1 6 C-1 2 -1 2 0 0 Z " fill="#689AEE" transform="translate(419,154)"/>
<path d="M0 0 C4 0 4 0 6.5625 2.375 C7.366875 3.24125 8.17125 4.1075 9 5 C9.99 5.66 10.98 6.32 12 7 C11.67 7.99 11.34 8.98 11 10 C7.19364503 6.79239749 3.45436433 3.59253891 0 0 Z " fill="#638A24" transform="translate(288,454)"/>
<path d="M0 0 C2.31 1.98 4.62 3.96 7 6 C5.68 6.33 4.36 6.66 3 7 C-0.11785113 7.64644661 -0.11785113 7.64644661 -1 10 C-1 7 -1 7 0 5 C0.66 5 1.32 5 2 5 C1.34 3.35 0.68 1.7 0 0 Z " fill="#E0703D" transform="translate(290,317)"/>
<path d="M0 0 C4.11979807 1.37326602 7.04297546 4.08595092 9 8 C7.35 8.33 5.7 8.66 4 9 C4.33 7.68 4.66 6.36 5 5 C3.35 4.67 1.7 4.34 0 4 C0 2.68 0 1.36 0 0 Z " fill="#C10B0B" transform="translate(133,266)"/>
<path d="M0 0 C0.66 0.33 1.32 0.66 2 1 C-6.07744875 9.81548975 -6.07744875 9.81548975 -12 11 C-11.34 10.01 -10.68 9.02 -10 8 C-9.34 8 -8.68 8 -8 8 C-8 7.34 -8 6.68 -8 6 C-6.34928604 4.97388051 -4.68029994 3.97691857 -3 3 C-1.24850835 1.41754725 -1.24850835 1.41754725 0 0 Z " fill="#8190D9" transform="translate(284,228)"/>
<path d="M0 0 C0.78375 0.04125 1.5675 0.0825 2.375 0.125 C-0.20284846 2.77252004 -2.54148098 5.06932065 -5.625 7.125 C-4.53409091 0.21590909 -4.53409091 0.21590909 0 0 Z " fill="#80BF1A" transform="translate(377.625,456.875)"/>
<path d="M0 0 C0.66 0.33 1.32 0.66 2 1 C-2.455 4.465 -2.455 4.465 -7 8 C-8 4 -8 4 -8 3 C-7.05125 2.690625 -6.1025 2.38125 -5.125 2.0625 C-2.13919592 1.12605258 -2.13919592 1.12605258 0 0 Z " fill="#B8F912" transform="translate(483,328)"/>
<path d="M0 0 C1.34313399 0.64669414 2.67391178 1.31903578 4 2 C4.886875 2.45375 5.77375 2.9075 6.6875 3.375 C9 5 9 5 9.8125 7.1875 C9.874375 7.785625 9.93625 8.38375 10 9 C5.21097855 6.56030983 2.37277818 5.02470674 0 0 Z " fill="#9D100F" transform="translate(144,320)"/>
<path d="M0 0 C0.99 0.33 1.98 0.66 3 1 C0.03 3.64 -2.94 6.28 -6 9 C-6.33 8.01 -6.66 7.02 -7 6 C-6.34 6 -5.68 6 -5 6 C-5 5.34 -5 4.68 -5 4 C-2.6875 1.8125 -2.6875 1.8125 0 0 Z " fill="#B5F815" transform="translate(406,390)"/>
<path d="M0 0 C0.33 0.99 0.66 1.98 1 3 C-0.65 3.33 -2.3 3.66 -4 4 C-4.33 4.99 -4.66 5.98 -5 7 C-6.32 6.67 -7.64 6.34 -9 6 C-7.8803014 4.99406757 -6.7540588 3.9954151 -5.625 3 C-4.68527344 2.1646875 -4.68527344 2.1646875 -3.7265625 1.3125 C-2 0 -2 0 0 0 Z " fill="#E6F9CD" transform="translate(468,387)"/>
<path d="M0 0 C4.03384128 2.07143201 5.92856799 3.96615872 8 8 C6.02 8.33 4.04 8.66 2 9 C2.33 7.68 2.66 6.36 3 5 C2.01 4.34 1.02 3.68 0 3 C0 2.01 0 1.02 0 0 Z " fill="#442E31" transform="translate(165,341)"/>
<path d="M0 0 C1.98 0 3.96 0 6 0 C6.66 2.64 7.32 5.28 8 8 C6.85073734 7.04578192 5.70569459 6.08647955 4.5625 5.125 C3.92441406 4.59132813 3.28632813 4.05765625 2.62890625 3.5078125 C1 2 1 2 0 0 Z " fill="#7398E3" transform="translate(255,283)"/>
<path d="M0 0 C2.94982021 1.14186589 4.88437775 2.67281553 7 5 C5.02 5.66 3.04 6.32 1 7 C1 4 1 4 2 2 C0.68 1.67 -0.64 1.34 -2 1 C-1.34 0.67 -0.68 0.34 0 0 Z " fill="#B5F820" transform="translate(340,271)"/>
<path d="M0 0 C0.33 0.66 0.66 1.32 1 2 C-1 5 -1 5 -4 6 C-4.33 6.66 -4.66 7.32 -5 8 C-5.99 8 -6.98 8 -8 8 C-8 8.66 -8 9.32 -8 10 C-8.99 9.67 -9.98 9.34 -11 9 C-10.34 9 -9.68 9 -9 9 C-9 8.34 -9 7.68 -9 7 C-8.34 7 -7.68 7 -7 7 C-7 6.34 -7 5.68 -7 5 C-5.03277992 3.61876037 -3.03131672 2.28511874 -1 1 C-0.67 0.67 -0.34 0.34 0 0 Z " fill="#728BCB" transform="translate(297,217)"/>
<path d="M0 0 C0.99 0.66 1.98 1.32 3 2 C-0.465 4.97 -0.465 4.97 -4 8 C-4.66 7.67 -5.32 7.34 -6 7 C-6 6.34 -6 5.68 -6 5 C-5.01 4.34 -4.02 3.68 -3 3 C-1.98131338 2.01904252 -0.97648017 1.02297922 0 0 Z " fill="#49342D" transform="translate(214,193)"/>
<path d="M0 0 C1.32 0 2.64 0 4 0 C4 0.99 4 1.98 4 3 C5.32 2.67 6.64 2.34 8 2 C8 3.98 8 5.96 8 8 C6.85073734 7.04578192 5.70569459 6.08647955 4.5625 5.125 C3.92441406 4.59132812 3.28632813 4.05765625 2.62890625 3.5078125 C1 2 1 2 0 0 Z " fill="#323F58" transform="translate(406,140)"/>
<path d="M0 0 C3.77545388 1.09068668 6.47043472 1.9083091 9 5 C8.67 5.99 8.34 6.98 8 8 C6.66372225 6.85760183 5.33104612 5.71098945 4 4.5625 C3.2575 3.92441406 2.515 3.28632813 1.75 2.62890625 C1.1725 2.09136719 0.595 1.55382812 0 1 C0 0.67 0 0.34 0 0 Z " fill="#6B912E" transform="translate(299,464)"/>
<path d="M0 0 C1.31611677 0.95336021 2.62778961 1.91285774 3.9375 2.875 C4.66839844 3.40867187 5.39929688 3.94234375 6.15234375 4.4921875 C8 6 8 6 9 8 C6.03 7.505 6.03 7.505 3 7 C3 6.34 3 5.68 3 5 C2.01 4.34 1.02 3.68 0 3 C0 2.01 0 1.02 0 0 Z " fill="#FCE4DD" transform="translate(255,424)"/>
<path d="M0 0 C3.98175544 2.10148204 6.35039045 4.36905358 9 8 C6.03 7.505 6.03 7.505 3 7 C2.67 5.35 2.34 3.7 2 2 C1.34 2 0.68 2 0 2 C0 1.34 0 0.68 0 0 Z " fill="#E2B4AF" transform="translate(192,366)"/>
<path d="M0 0 C1.1055189 0.93590504 2.20935453 1.87379858 3.3125 2.8125 C3.92738281 3.33457031 4.54226563 3.85664063 5.17578125 4.39453125 C6.85424679 5.87172469 8.43882034 7.40039131 10 9 C7.33289346 8.84759391 5.5494129 8.50635081 3.5546875 6.66796875 C0 2.49375 0 2.49375 0 0 Z " fill="#EFFADE" transform="translate(298,464)"/>
<path d="M0 0 C1.14926266 0.95421808 2.29430541 1.91352045 3.4375 2.875 C4.07558594 3.40867187 4.71367187 3.94234375 5.37109375 4.4921875 C7 6 7 6 8 8 C2.36423841 6.52980132 2.36423841 6.52980132 0.625 4 C0 2 0 2 0 0 Z " fill="#FCECE3" transform="translate(264,432)"/>
<path d="M0 0 C0.99 0.33 1.98 0.66 3 1 C0.03 3.64 -2.94 6.28 -6 9 C-6.33 8.01 -6.66 7.02 -7 6 C-2.25 2 -2.25 2 0 2 C0 1.34 0 0.68 0 0 Z " fill="#B4F614" transform="translate(395,399)"/>
<path d="M0 0 C3.42227589 1.25483449 5.54080489 3.3651481 8 6 C7.67 6.66 7.34 7.32 7 8 C5.53515625 6.76302083 4.0703125 5.52604167 2.60546875 4.2890625 C1.1344954 3.10798901 -0.43037794 2.04641471 -2 1 C-1.34 0.67 -0.68 0.34 0 0 Z " fill="#C00708" transform="translate(262,388)"/>
<path d="M0 0 C1.32 0.33 2.64 0.66 4 1 C4 1.99 4 2.98 4 4 C5.32 4.66 6.64 5.32 8 6 C8 6.99 8 7.98 8 9 C7.566875 8.525625 7.13375 8.05125 6.6875 7.5625 C4.97690387 5.76313043 4.97690387 5.76313043 2 5 C2 4.34 2 3.68 2 3 C1.34 3 0.68 3 0 3 C0 2.01 0 1.02 0 0 Z " fill="#D4C126" transform="translate(327,351)"/>
<path d="M0 0 C0.66 0.33 1.32 0.66 2 1 C0.375 3.9375 0.375 3.9375 -2 7 C-5.25 7.875 -5.25 7.875 -8 8 C-5.33333333 5.33333333 -2.66666667 2.66666667 0 0 Z " fill="#ADF139" transform="translate(414,298)"/>
<path d="M0 0 C0.66 0 1.32 0 2 0 C2.33 0.66 2.66 1.32 3 2 C4.65 2 6.3 2 8 2 C7.67 3.98 7.34 5.96 7 8 C5.8274869 7.04882866 4.66212985 6.08882991 3.5 5.125 C2.8503125 4.59132813 2.200625 4.05765625 1.53125 3.5078125 C1.0259375 3.01023437 0.520625 2.51265625 0 2 C0 1.34 0 0.68 0 0 Z " fill="#2E3F4F" transform="translate(439,265)"/>
<path d="M0 0 C0.66 0.33 1.32 0.66 2 1 C1.525625 1.5775 1.05125 2.155 0.5625 2.75 C-0.9484867 4.92582084 -1.54036151 6.42602448 -2 9 C-2.99 8.67 -3.98 8.34 -5 8 C-4.45773019 4.20411134 -2.79872437 2.52788007 0 0 Z " fill="#DB5B5A" transform="translate(138,258)"/>
<path d="M0 0 C0.66 0.33 1.32 0.66 2 1 C1.01 1.33 0.02 1.66 -1 2 C-1.268125 2.598125 -1.53625 3.19625 -1.8125 3.8125 C-3.50798425 6.93576046 -6.01439213 8.18267347 -9 10 C-9.33 9.01 -9.66 8.02 -10 7 C-8.9171875 6.6596875 -8.9171875 6.6596875 -7.8125 6.3125 C-4.46790687 4.75168987 -2.48396041 2.6968713 0 0 Z " fill="#174C98" transform="translate(430,240)"/>
<path d="M0 0 C1.65 1.65 3.3 3.3 5 5 C4 6 4 6 1.4375 6.0625 C0.2309375 6.0315625 0.2309375 6.0315625 -1 6 C-0.67 4.02 -0.34 2.04 0 0 Z " fill="#E25D5B" transform="translate(276,209)"/>
<path d="M0 0 C0.33 0.66 0.66 1.32 1 2 C-0.65 3.98 -2.3 5.96 -4 8 C-4.99 7.34 -5.98 6.68 -7 6 C-4.69 4.02 -2.38 2.04 0 0 Z " fill="#6C99E2" transform="translate(332,189)"/>
<path d="M0 0 C0 2.33333333 0 4.66666667 0 7 C-2.97 6.505 -2.97 6.505 -6 6 C-2.25 1.125 -2.25 1.125 0 0 Z " fill="#6499E8" transform="translate(358,168)"/>
<path d="M0 0 C0.99 1.32 1.98 2.64 3 4 C0.69 5.65 -1.62 7.3 -4 9 C-4.33 8.01 -4.66 7.02 -5 6 C-4.175 5.566875 -3.35 5.13375 -2.5 4.6875 C-1.2625 3.8521875 -1.2625 3.8521875 0 3 C0 2.01 0 1.02 0 0 Z " fill="#303D45" transform="translate(378,146)"/>
<path d="M0 0 C2.31 1.98 4.62 3.96 7 6 C6.01 6.33 5.02 6.66 4 7 C2.35 5.35 0.7 3.7 -1 2 C-0.67 1.34 -0.34 0.68 0 0 Z " fill="#FDE4DC" transform="translate(248,417)"/>
<path d="M0 0 C-0.125 1.8125 -0.125 1.8125 -1 4 C-4.20883825 5.95320589 -6.2205439 7 -10 7 C-8.71372289 5.82739389 -7.42080217 4.6620717 -6.125 3.5 C-5.04605469 2.52546875 -5.04605469 2.52546875 -3.9453125 1.53125 C-2 0 -2 0 0 0 Z " fill="#D96364" transform="translate(197,212)"/>
<path d="M0 0 C1.11375 1.0209375 1.11375 1.0209375 2.25 2.0625 C4.75949064 4.28353676 4.75949064 4.28353676 7.3125 3.75 C7.869375 3.5025 8.42625 3.255 9 3 C9 3.99 9 4.98 9 6 C2.47692308 5.50769231 2.47692308 5.50769231 0.0625 2.9375 C-0.4634375 1.9784375 -0.4634375 1.9784375 -1 1 C-0.67 0.67 -0.34 0.34 0 0 Z " fill="#F2FCDF" transform="translate(327,491)"/>
<path d="M0 0 C0.66 0.33 1.32 0.66 2 1 C0.55609075 4.80666984 -1.34952803 6.26602582 -5 8 C-5.66 7.67 -6.32 7.34 -7 7 C-4.66666667 4.66666667 -2.33333333 2.33333333 0 0 Z " fill="#D4EC1F" transform="translate(303,388)"/>
<path d="M0 0 C0.99 0.33 1.98 0.66 3 1 C0.42215154 3.64752004 -1.91648098 5.94432065 -5 8 C-5.33 7.01 -5.66 6.02 -6 5 C-4.515 4.0409375 -4.515 4.0409375 -3 3.0625 C-2.01 2.381875 -1.02 1.70125 0 1 C0 0.67 0 0.34 0 0 Z " fill="#83C227" transform="translate(461,388)"/>
<path d="M0 0 C3.36720387 1.39332574 4.9859524 2.9789286 7 6 C5.35 6 3.7 6 2 6 C2 5.01 2 4.02 2 3 C1.34 3 0.68 3 0 3 C0 2.01 0 1.02 0 0 Z " fill="#DFAFB1" transform="translate(205,378)"/>
<path d="M0 0 C1.14926266 0.95421808 2.29430541 1.91352045 3.4375 2.875 C4.07558594 3.40867187 4.71367187 3.94234375 5.37109375 4.4921875 C7 6 7 6 8 8 C7.01 8 6.02 8 5 8 C4.34 7.34 3.68 6.68 3 6 C2.34 6 1.68 6 1 6 C0.67 4.02 0.34 2.04 0 0 Z " fill="#B5F832" transform="translate(363,291)"/>
<path d="M0 0 C4.2742558 1.5830577 6.26531794 4.50568404 9 8 C5.88256767 6.49901406 2.84498177 4.97568178 0 3 C0 2.01 0 1.02 0 0 Z " fill="#BA6D94" transform="translate(250,280)"/>
<path d="M0 0 C1.65 0.33 3.3 0.66 5 1 C5 1.66 5 2.32 5 3 C3.02 3.66 1.04 4.32 -1 5 C-0.67 3.35 -0.34 1.7 0 0 Z " fill="#6DA6C7" transform="translate(337,268)"/>
<path d="M0 0 C2.31 0.33 4.62 0.66 7 1 C5.35 2.65 3.7 4.3 2 6 C2 5.01 2 4.02 2 3 C1.34 2.67 0.68 2.34 0 2 C0 1.34 0 0.68 0 0 Z " fill="#4D3330" transform="translate(177,220)"/>
<path d="M0 0 C-3.20336822 2.83374881 -5.78087253 3.5205537 -10 4 C-4.7704918 -1.59016393 -4.7704918 -1.59016393 0 0 Z " fill="#659AE5" transform="translate(311,211)"/>
<path d="M0 0 C1.32 0.33 2.64 0.66 4 1 C1.36 2.98 -1.28 4.96 -4 7 C-4.33 6.34 -4.66 5.68 -5 5 C-4.34 5 -3.68 5 -3 5 C-3 4.01 -3 3.02 -3 2 C-2.01 2 -1.02 2 0 2 C0 1.34 0 0.68 0 0 Z " fill="#88C02F" transform="translate(368,464)"/>
<path d="M0 0 C0.33 0 0.66 0 1 0 C3.14285714 7.42857143 3.14285714 7.42857143 4 11 C1.4375 9.4375 1.4375 9.4375 -1 7 C-0.8125 3.25 -0.8125 3.25 0 0 Z " fill="#698A2B" transform="translate(284,443)"/>
<path d="M0 0 C0.99 0.495 0.99 0.495 2 1 C1.01 1.495 1.01 1.495 0 2 C0 1.34 0 0.68 0 0 Z M-6 1 C-4.35 1 -2.7 1 -1 1 C0 4 0 4 -1 7 C-2.65 5.02 -4.3 3.04 -6 1 Z " fill="#BC1B1D" transform="translate(273,433)"/>
<path d="M0 0 C2.97 0.495 2.97 0.495 6 1 C6.33 2.98 6.66 4.96 7 7 C5.83040013 6.02433888 4.66438823 5.044375 3.5 4.0625 C2.8503125 3.51722656 2.200625 2.97195313 1.53125 2.41015625 C1.0259375 1.94480469 0.520625 1.47945313 0 1 C0 0.67 0 0.34 0 0 Z " fill="#B60E13" transform="translate(234,403)"/>
<path d="M0 0 C0.33 0.99 0.66 1.98 1 3 C-1.3125 4.5625 -1.3125 4.5625 -4 6 C-4.99 5.67 -5.98 5.34 -7 5 C-4.69 3.35 -2.38 1.7 0 0 Z " fill="#B8D199" transform="translate(495,364)"/>
<path d="M0 0 C1.65 0 3.3 0 5 0 C6.25664978 2.90600261 7 4.79604584 7 8 C5.8274869 7.04882866 4.66212985 6.08882991 3.5 5.125 C2.8503125 4.59132813 2.200625 4.05765625 1.53125 3.5078125 C1.0259375 3.01023437 0.520625 2.51265625 0 2 C0 1.34 0 0.68 0 0 Z " fill="#C6DA95" transform="translate(488,312)"/>
<path d="M0 0 C2.31 1.98 4.62 3.96 7 6 C6.67 6.66 6.34 7.32 6 8 C3.5625 7.375 3.5625 7.375 1 6 C0.1875 2.875 0.1875 2.875 0 0 Z " fill="#C40F0D" transform="translate(166,296)"/>
<path d="M0 0 C-0.75 1.9375 -0.75 1.9375 -2 4 C-4.125 4.75 -4.125 4.75 -6 5 C-6.99 3.68 -7.98 2.36 -9 1 C-7.68 1 -6.36 1 -5 1 C-5 1.66 -5 2.32 -5 3 C-4.319375 2.2575 -4.319375 2.2575 -3.625 1.5 C-2 0 -2 0 0 0 Z " fill="#7197F0" transform="translate(272,290)"/>
<path d="M0 0 C0.99 0.33 1.98 0.66 3 1 C3 2.32 3 3.64 3 5 C2.34 5.66 1.68 6.32 1 7 C0.01 5.68 -0.98 4.36 -2 3 C-1.34 2.01 -0.68 1.02 0 0 Z " fill="#FA5453" transform="translate(164,289)"/>
<path d="M0 0 C0.66 1.32 1.32 2.64 2 4 C-2.455 5.485 -2.455 5.485 -7 7 C-4.66666667 4.66666667 -2.33333333 2.33333333 0 0 Z " fill="#7597E8" transform="translate(250,256)"/>
<path d="M0 0 C0.66 0.33 1.32 0.66 2 1 C1.21625 1.598125 0.4325 2.19625 -0.375 2.8125 C-3.14574323 4.91085249 -3.14574323 4.91085249 -5 8 C-5.99 8 -6.98 8 -8 8 C-8 7.34 -8 6.68 -8 6 C-6.25 4.4921875 -6.25 4.4921875 -4 2.875 C-3.2575 2.33617187 -2.515 1.79734375 -1.75 1.2421875 C-1.1725 0.83226562 -0.595 0.42234375 0 0 Z " fill="#9084BA" transform="translate(264,244)"/>
<path d="M0 0 C0.33 2.31 0.66 4.62 1 7 C-1.03833424 5.7260411 -3.03852126 4.38938077 -5 3 C-5 2.34 -5 1.68 -5 1 C-1.125 0 -1.125 0 0 0 Z " fill="#304050" transform="translate(437,163)"/>
<path d="M0 0 C0.33 0.66 0.66 1.32 1 2 C-0.32 3.65 -1.64 5.3 -3 7 C-3.99 6.34 -4.98 5.68 -6 5 C-4.02 3.35 -2.04 1.7 0 0 Z " fill="#E7F8CD" transform="translate(342,488)"/>
<path d="M0 0 C1.98 0 3.96 0 6 0 C4.3545622 1.68762851 2.68711423 3.3540349 1 5 C0.67 5 0.34 5 0 5 C0 3.35 0 1.7 0 0 Z " fill="#7FBC1B" transform="translate(380,452)"/>
<path d="M0 0 C0.66 0 1.32 0 2 0 C3.01866229 1.65532623 4.01810813 3.32260138 5 5 C5.66 5.33 6.32 5.66 7 6 C6.67 6.99 6.34 7.98 6 9 C3.69 6.69 1.38 4.38 -1 2 C-0.67 1.34 -0.34 0.68 0 0 Z " fill="#C2EE26" transform="translate(284,404)"/>
<path d="M0 0 C0.66 0.33 1.32 0.66 2 1 C0.02 3.31 -1.96 5.62 -4 8 C-4.99 7.67 -5.98 7.34 -7 7 C-5.62736683 4.25473365 -3.59407253 3.55644352 -1 2 C-0.67 1.34 -0.34 0.68 0 0 Z " fill="#CBF613" transform="translate(294,396)"/>
<path d="M0 0 C0 0.99 0 1.98 0 3 C-2.8125 5.75 -2.8125 5.75 -6 8 C-6.99 7.67 -7.98 7.34 -9 7 C-6.03 4.69 -3.06 2.38 0 0 Z " fill="#82C702" transform="translate(494,321)"/>
<path d="M0 0 C1.2065625 0.0309375 1.2065625 0.0309375 2.4375 0.0625 C1.0625 2.0625 1.0625 2.0625 -0.5625 4.0625 C-1.2225 4.0625 -1.8825 4.0625 -2.5625 4.0625 C-2.8925 4.7225 -3.2225 5.3825 -3.5625 6.0625 C-3.605221 4.39638095 -3.60313832 2.72867115 -3.5625 1.0625 C-2.5625 0.0625 -2.5625 0.0625 0 0 Z " fill="#4D312D" transform="translate(134.5625,258.9375)"/>
<path d="M0 0 C0 3 0 3 -1 5 C-1.66 5 -2.32 5 -3 5 C-3 5.66 -3 6.32 -3 7 C-4.32 6.67 -5.64 6.34 -7 6 C-4.69 4.02 -2.38 2.04 0 0 Z " fill="#DA6464" transform="translate(183,222)"/>
<path d="M0 0 C1.14926266 0.95421808 2.29430541 1.91352045 3.4375 2.875 C4.07558594 3.40867188 4.71367187 3.94234375 5.37109375 4.4921875 C7 6 7 6 8 8 C5.5625 7.1875 5.5625 7.1875 3 6 C2.67 5.01 2.34 4.02 2 3 C1.34 3 0.68 3 0 3 C0 2.01 0 1.02 0 0 Z " fill="#D75F63" transform="translate(245,180)"/>
<path d="M0 0 C0.33 0.99 0.66 1.98 1 3 C0.67 3.66 0.34 4.32 0 5 C-1.98 5 -3.96 5 -6 5 C-6 4.34 -6 3.68 -6 3 C-4.02 2.01 -2.04 1.02 0 0 Z " fill="#404040" transform="translate(109,128)"/>
<path d="M0 0 C2.88575819 0.39803561 3.82189513 0.79009069 5.75 3.0625 C6.1625 3.701875 6.575 4.34125 7 5 C3.47967572 5 2.5614657 4.29648649 0 2 C0 1.34 0 0.68 0 0 Z " fill="#5F9501" transform="translate(309,432)"/>
<path d="M0 0 C0.33 1.32 0.66 2.64 1 4 C0.01 4.66 -0.98 5.32 -2 6 C-2.99 5.34 -3.98 4.68 -5 4 C-3.35 2.68 -1.7 1.36 0 0 Z " fill="#EEFDDC" transform="translate(431,416)"/>
<path d="M0 0 C3.91402949 1.26941497 5.79072873 2.51167694 8 6 C5 6 5 6 3.61328125 4.6875 C2.40885417 3.125 1.20442708 1.5625 0 0 Z " fill="#B72628" transform="translate(213,384)"/>
<path d="M0 0 C1.32 0.66 2.64 1.32 4 2 C3.34 2 2.68 2 2 2 C2 2.66 2 3.32 2 4 C0.35 4.66 -1.3 5.32 -3 6 C-3 5.01 -3 4.02 -3 3 C-2.01 3 -1.02 3 0 3 C0 2.01 0 1.02 0 0 Z " fill="#EB784C" transform="translate(316,374)"/>
<path d="M0 0 C0.66 0.33 1.32 0.66 2 1 C-1.625 5.875 -1.625 5.875 -5 7 C-3.75023244 3.34683329 -3.32901247 2.21934164 0 0 Z " fill="#E1A737" transform="translate(325,369)"/>
<path d="M0 0 C2.97 0.495 2.97 0.495 6 1 C6.33 2.98 6.66 4.96 7 7 C5.83040013 6.02433888 4.66438823 5.044375 3.5 4.0625 C2.8503125 3.51722656 2.200625 2.97195313 1.53125 2.41015625 C1.0259375 1.94480469 0.520625 1.47945313 0 1 C0 0.67 0 0.34 0 0 Z " fill="#D6EE1F" transform="translate(305,330)"/>
<path d="M0 0 C3.7952131 1.49097658 5.61042731 3.75700849 8 7 C5.6875 6.875 5.6875 6.875 3 6 C1.1875 2.9375 1.1875 2.9375 0 0 Z " fill="#C36A85" transform="translate(272,301)"/>
<path d="M0 0 C1.65 0 3.3 0 5 0 C5.33 1.98 5.66 3.96 6 6 C3.97945196 4.35830472 1.97956942 2.69088222 0 1 C0 0.67 0 0.34 0 0 Z " fill="#71A8AD" transform="translate(367,294)"/>
<path d="M0 0 C3.26460973 1.80412643 4.88929795 2.83394693 7 6 C6.01 6.495 6.01 6.495 5 7 C5 6.34 5 5.68 5 5 C3.68 4.67 2.36 4.34 1 4 C0.67 2.68 0.34 1.36 0 0 Z " fill="#AFDD23" transform="translate(460,287)"/>
<path d="M0 0 C0.99 0 1.98 0 3 0 C3 0.66 3 1.32 3 2 C2.34 2 1.68 2 1 2 C1 2.66 1 3.32 1 4 C-0.98 4.99 -0.98 4.99 -3 6 C-3 5.34 -3 4.68 -3 4 C-3.66 3.67 -4.32 3.34 -5 3 C-3.68 3 -2.36 3 -1 3 C-0.67 2.01 -0.34 1.02 0 0 Z " fill="#6AA4CD" transform="translate(427,284)"/>
<path d="M0 0 C1.32 0.66 2.64 1.32 4 2 C1.69 3.65 -0.62 5.3 -3 7 C-3.33 6.34 -3.66 5.68 -4 5 C-3.34 5 -2.68 5 -2 5 C-1.34 3.35 -0.68 1.7 0 0 Z " fill="#522D30" transform="translate(156,240)"/>
<path d="M0 0 C0.66 0.33 1.32 0.66 2 1 C-1.96 4.465 -1.96 4.465 -6 8 C-6 5 -6 5 -4.6875 3.61328125 C-3.125 2.40885417 -1.5625 1.20442708 0 0 Z " fill="#294357" transform="translate(327,191)"/>
<path d="M0 0 C2.475 0.99 2.475 0.99 5 2 C4.67 3.32 4.34 4.64 4 6 C2.02 4.68 0.04 3.36 -2 2 C-1.34 1.34 -0.68 0.68 0 0 Z " fill="#F46062" transform="translate(240,178)"/>
<path d="M0 0 C1.98 1.65 3.96 3.3 6 5 C5.67 5.66 5.34 6.32 5 7 C3.02 5.68 1.04 4.36 -1 3 C-0.67 2.01 -0.34 1.02 0 0 Z " fill="#6A99E8" transform="translate(438,171)"/>
<path d="M0 0 C1.65 0.33 3.3 0.66 5 1 C4.67 1.66 4.34 2.32 4 3 C3.34 3 2.68 3 2 3 C2 3.66 2 4.32 2 5 C1.01 4.67 0.02 4.34 -1 4 C-0.67 2.68 -0.34 1.36 0 0 Z " fill="#31372A" transform="translate(345,169)"/>
<path d="M0 0 C0.33 0.66 0.66 1.32 1 2 C0.01 3.32 -0.98 4.64 -2 6 C-3.32 5.67 -4.64 5.34 -6 5 C-4.02 3.35 -2.04 1.7 0 0 Z " fill="#6B98DE" transform="translate(390,142)"/>
<path d="M0 0 C0.33 1.32 0.66 2.64 1 4 C-1.91517292 2.92598892 -3.77810176 2.22189824 -6 0 C-3.50907189 -1.24546405 -2.58919267 -0.7767578 0 0 Z " fill="#444444" transform="translate(92,75)"/>
<path d="M0 0 C0.99 0.33 1.98 0.66 3 1 C1.35 2.65 -0.3 4.3 -2 6 C-2.66 5.67 -3.32 5.34 -4 5 C-2.68 3.35 -1.36 1.7 0 0 Z " fill="#EDFDE3" transform="translate(359,474)"/>
<path d="M0 0 C0.66 0.33 1.32 0.66 2 1 C0.02 3.31 -1.96 5.62 -4 8 C-4.66 7.67 -5.32 7.34 -6 7 C-4.02 4.69 -2.04 2.38 0 0 Z " fill="#EAFCD4" transform="translate(375,461)"/>
<path d="M0 0 C2.31 1.98 4.62 3.96 7 6 C6.01 6.33 5.02 6.66 4 7 C0 2.25 0 2.25 0 0 Z " fill="#5C9501" transform="translate(298,420)"/>
<path d="M0 0 C1.32 0.33 2.64 0.66 4 1 C1.69 2.65 -0.62 4.3 -3 6 C-3.33 5.34 -3.66 4.68 -4 4 C-3.34 4 -2.68 4 -2 4 C-1.34 2.68 -0.68 1.36 0 0 Z " fill="#88C226" transform="translate(421,421)"/>
<path d="M0 0 C0 3 0 3 -1 6 C-2.65 6 -4.3 6 -6 6 C-4 4 -2 2 0 0 Z " fill="#EAFBD0" transform="translate(438,410)"/>
<path d="M0 0 C1.32 0.33 2.64 0.66 4 1 C1.03 3.475 1.03 3.475 -2 6 C-2.33 5.34 -2.66 4.68 -3 4 C-2.67 3.34 -2.34 2.68 -2 2 C-1.34 2 -0.68 2 0 2 C0 1.34 0 0.68 0 0 Z " fill="#80BD21" transform="translate(435,409)"/>
<path d="M0 0 C1.98 0 3.96 0 6 0 C4.35 1.65 2.7 3.3 1 5 C0.34 4.34 -0.32 3.68 -1 3 C-0.34 3 0.32 3 1 3 C0.67 2.01 0.34 1.02 0 0 Z " fill="#81C025" transform="translate(442,402)"/>
<path d="M0 0 C3.76488042 1.72154788 6.15063897 3.99234114 9 7 C6 7 6 7 4.39453125 5.46875 C3.87246094 4.8190625 3.35039062 4.169375 2.8125 3.5 C2.28269531 2.8503125 1.75289062 2.200625 1.20703125 1.53125 C0.80871094 1.0259375 0.41039062 0.520625 0 0 Z " fill="#B02524" transform="translate(224,394)"/>
<path d="M0 0 C0.99 0.33 1.98 0.66 3 1 C0.36 2.98 -2.28 4.96 -5 7 C-5.33 6.34 -5.66 5.68 -6 5 C-1.60546875 0.99609375 -1.60546875 0.99609375 0 0 Z " fill="#B8F911" transform="translate(470,338)"/>
<path d="M0 0 C3.37503669 1.1858237 5.64722731 2.27573689 8 5 C7.67 5.66 7.34 6.32 7 7 C4.5 5.625 4.5 5.625 2 4 C2 3.34 2 2.68 2 2 C1.34 2 0.68 2 0 2 C0 1.34 0 0.68 0 0 Z " fill="#CFAE26" transform="translate(297,324)"/>
<path d="M0 0 C0.66 0.66 1.32 1.32 2 2 C-0.31 3.65 -2.62 5.3 -5 7 C-5 6.01 -5 5.02 -5 4 C-2.5 1.8125 -2.5 1.8125 0 0 Z " fill="#B6F816" transform="translate(492,320)"/>
<path d="M0 0 C0.33 0.99 0.66 1.98 1 3 C3.01508358 3.73323796 3.01508358 3.73323796 5 4 C4.01 5.485 4.01 5.485 3 7 C1.35 5.02 -0.3 3.04 -2 1 C-1.34 0.67 -0.68 0.34 0 0 Z " fill="#35415E" transform="translate(428,253)"/>
</svg>